/* XPM */
static char *_cba1cc49163410eb64e002321cda143eKqtBk3HOfiu88Td[] = {
/* columns rows colors chars-per-pixel */
"80 80 235 2 ",
"   c None",
".  c #583B24",
"X  c #354C29",
"o  c #3B4C29",
"O  c #3A4727",
"+  c #2E542B",
"@  c #32552C",
"#  c #3C542D",
"$  c #335C2E",
"%  c #3A5B2F",
"&  c #375C30",
"*  c #3B5D31",
"=  c #2F4F29",
"-  c #34602F",
";  c #3A612F",
":  c #366331",
">  c #3C6432",
",  c #3A6C34",
"<  c #376A32",
"1  c #3D7437",
"2  c #454C2A",
"3  c #4C4C2B",
"4  c #474527",
"5  c #564A2C",
"6  c #43542E",
"7  c #49552F",
"8  c #435B31",
"9  c #4B5B33",
"0  c #495531",
"q  c #545B33",
"w  c #5C5B35",
"e  c #5A5835",
"r  c #56532F",
"t  c #6D4A2D",
"y  c #66492C",
"u  c #764F31",
"i  c #645B35",
"p  c #63533A",
"a  c #6B5D3B",
"s  c #675835",
"d  c #7D5332",
"f  c #755B36",
"g  c #67502F",
"h  c #436333",
"j  c #4A6534",
"k  c #446B34",
"l  c #4A6C36",
"z  c #536436",
"x  c #546338",
"c  c #5C643A",
"v  c #536B3A",
"b  c #5C6B3B",
"n  c #596636",
"m  c #437336",
"M  c #44743A",
"N  c #4C733A",
"B  c #497737",
"V  c #567738",
"C  c #65643A",
"Z  c #6B633C",
"A  c #636B3C",
"S  c #6B6B3C",
"D  c #666336",
"F  c #74643C",
"G  c #7C653D",
"H  c #726A3D",
"J  c #7B6A3E",
"K  c #6B733D",
"L  c #74763F",
"P  c #6C5D41",
"I  c #577844",
"U  c #577242",
"Y  c #6A6A41",
"T  c #7C6B43",
"R  c #7A6B4C",
"E  c #746743",
"W  c #687648",
"Q  c #7C7244",
"!  c #767747",
"~  c #7F6E50",
"^  c #777D54",
"/  c #825634",
"(  c #865936",
")  c #895B37",
"_  c #8B5D39",
"`  c #855D3B",
"'  c #8D613B",
"]  c #82643C",
"[  c #92643D",
"{  c #96683F",
"}  c #996A3F",
"|  c #81763C",
" . c #836B43",
".. c #8B6C44",
"X. c #8B6744",
"o. c #956A42",
"O. c #9B6D43",
"+. c #946842",
"@. c #847145",
"#. c #8C7346",
"$. c #837449",
"%. c #8B7B4E",
"&. c #88784A",
"*. c #9E7146",
"=. c #957449",
"-. c #9C744A",
";. c #94784C",
":. c #9B7B4D",
">. c #947347",
",. c #8C7C5B",
"<. c #837354",
"1. c #967B52",
"2. c #A17347",
"3. c #A4764A",
"4. c #A5794C",
"5. c #AB7C4E",
"6. c #A57D51",
"7. c #AD7E51",
"8. c #A27B58",
"9. c #B07F50",
"0. c #8B7963",
"q. c #947D62",
"w. c #58873A",
"e. c #598D3C",
"r. c #65873B",
"t. c #66993E",
"y. c #758A3A",
"u. c #728A50",
"i. c #77A446",
"p. c #7B8D60",
"a. c #578249",
"s. c #95953D",
"d. c #A89F3E",
"f. c #D89339",
"g. c #DFA63F",
"h. c #8B8353",
"j. c #978157",
"k. c #958D46",
"l. c #AE824D",
"z. c #B7874D",
"x. c #A38355",
"c. c #AE8152",
"v. c #AB8C5C",
"b. c #A6865B",
"n. c #B28354",
"m. c #B58758",
"M. c #B68959",
"N. c #B98C5B",
"B. c #B68955",
"V. c #AB915E",
"C. c #BE915F",
"Z. c #B6925E",
"A. c #B29648",
"S. c #ADAA43",
"D. c #938362",
"F. c #9D8D6A",
"G. c #998767",
"H. c #988B78",
"J. c #90946B",
"K. c #AB8966",
"L. c #B58E61",
"P. c #A2926E",
"I. c #AE9562",
"U. c #B49362",
"Y. c #BC9361",
"T. c #BB9966",
"R. c #A69571",
"E. c #AA9A74",
"W. c #A99A76",
"Q. c #B99B75",
"!. c #A58F77",
"~. c #9AA575",
"^. c #A7A87A",
"/. c #B3A27B",
"(. c #8CB551",
"). c #C49854",
"_. c #D7A849",
"`. c #D7B749",
"'. c #D7B653",
"]. c #C7AD49",
"[. c #E2AB47",
"{. c #E7B744",
"}. c #C19562",
"|. c #C59965",
" X c #C59A66",
".X c #C89C67",
"XX c #C59D69",
"oX c #CA9E69",
"OX c #C19E7A",
"+X c #CDA36C",
"@X c #C6A26C",
"#X c #D1A56F",
"$X c #D1A86F",
"%X c #D4AC67",
"&X c #DCB669",
"*X c #CEA671",
"=X c #CFA872",
"-X c #C4A278",
";X c #D2A770",
":X c #D4AA72",
">X c #D9AE75",
",X c #DBB176",
"<X c #DCB379",
"1X c #E0B57B",
"2X c #EBC64A",
"3X c #E6C958",
"4X c #F0CC50",
"5X c #D5C049",
"6X c #978E82",
"7X c #A59888",
"8X c #BCAB83",
"9X c #B5A881",
"0X c #B8B68B",
"qX c #B6B593",
"wX c #C5B58C",
"eX c #CCBB92",
"rX c #C4BD92",
"tX c #D1BE95",
"yX c #C0AD8A",
"uX c #CDC295",
"iX c #D6C499",
"pX c #DCC99E",
"aX c #D6C499",
"sX c #C3C88E",
"dX c #DCD4A7",
"fX c #D4CBA5",
"gX c #E2CEA2",
"hX c #E5D1A5",
"jX c #E7D5AB",
"kX c #EBDBB5",
"lX c #E9DABA",
"zX c #F2E2BB",
"xX c #F2E7CE",
"cX c #F8F3E8",
"vX c #FAF5EB",
/* pixels */
"                                                                                                                                                                ",
"                                                                                                                                                                ",
"            C.          O.            }.          O.          [           }.            Y.          C.          '           }.          O.            o.        ",
"            N.M.        6.u         }.M.        4.O.          { *.        }.XX        N.N.        N.N.        c.o.          Y.m.        4.{         o.{         ",
"          N.N.m.      5.5.d         |.M.+X      5.O.O.      o.{ *.      .X}.XX        N.m.C.      N.M.N.      7.+./       }.}.N.      3.4.{         O.{ 4.      ",
"          N.N.n.+X    c.5.d 7.    .X|.M.;X    4.5.O.3.      [ { o.      oX}.|.<X    n.N.n.N.    7.N.n.N.      n.+._       oX}.N.<X    5.5.{ n.    ( { { O.      ",
"        7.N.N.n.|.    m.4./ 7.    +XoXM.+X<X  n.7.O.3.N.  ( / [ { o.  }.+X}.|.:X    M.N.n.N.    m.N.m.m.;X  n.m.[ ' N.  oX+X}.N.>X    n.4.{ n.    / ( { { O.    ",
"        n.N.M.7.N.  c.N.2.( 5.N.|.;XoXM.+X;Xn.m.4.{ 3.N.4.) / [ { [ 5.|.:X|.|.#X=X5.N.N.n.m.|.7.m.N.m.n.}.  m.n.' ' m.  oX;X}.N.+X;X7.n.O.{ 7.C.' ( ( { [ o.    ",
"        7.N.N.c.N.|.c.N.*.) 5.B.|.:X#XM.+X|.m.N.3.{ 3.n.4.' ( [ { ' n.#X>X|.|.+X+Xc.m.N.n.n.|.n.m.N.m.n.}.M.m.n.' [ n.N.+X>X.XN.+XC.m.n.O.o.5.n.O.) ) { [ {     ",
"        7.N.N.7.N.XXc.m.*._ 5.m.|.#X;XN.+X}.m.m.3.o.3.n.4._ ( [ [ ' n.+X:X.X|.+X+Xn.m.N.n.7.oXM.m.N.m.5.|.N.n.7.[ { n.N.+X;X.XN.+XN.m.n.O.O.5.n.O.) _ { [ {     ",
"        7.N.N.7.N.=Xc.n.*._ 5.m.|.#X#XN.+X}.m.m.3.o.3.n.3._ ' { [ _ c.+X:X+X|.+X+Xn.m.C.m.c.;XN.n.C.N.7.oXY.n.5.[ +.n.N.+X#X.XC.+XC.m.n.O.O.5.n.o._ ' { [ [     ",
"        7.N.C.n.C.=Xn.7.O._ 5.n.|.:X#X}.+X}.m.m.4.O.3.n.3._ [ { [ ) c.+X:X#X.XoX+Xn.m.C.N.n.;XN.n.C.N.c.+XY.n.4.[ +.n.N.+X:X+X}.+XC.m.n.2.O.5.n.o.' [ { ' [     ",
"        7.N.C.n.C.=Xn.n.*._ 5.n.|.:X:X|.+X}.m.B.5.O.3.n.3._ [ { ' _ c.+X:X#X.XoX+Xn.n.C.N.n.;XN.n.C.N.c.+XY.m.5.{ +.n.N.+X:X+X.X+XY.m.m.3.O.5.n.o._ [ { ' [     ",
"        7.N.C.c.N.=Xn.m.3.' 5.m.|.:X:XoX+X|.B.m.5.O.3.n.3._ [ { _ _ c.+X:X+X.XoX+Xn.m.Y.M.c.;XN.n.C.N.7.+XY.m.n.O.o.n.N.+X>X#XoX+XY.m.m.3.*.5.n.o._ { { _ {     ",
"        7.N.C.5.N.;Xn.m.5.[ 7.n.|.:X:XoX+X|.M.m.5.*.4.n.3._ { o._ _ c.+X:X+XoX.X+Xn.m.}.n.7.;XN.n.}.M.5.+XY.m.n.O.O.n.N.+X:X+XoXoX}.m.m.3.2.5.n.o.[ O.{ ) {     ",
"        7.N.C.5.Y.;Xn.M.5.o.7.m.|.:X;XoXoX.XM.M.5.2.5.n.3._ { { _ _ n.+X:X+X|..X=Xm.m.}.n.c.>XN.n.}.M.5.;XY.m.m.*.*.n.N.+X:X+X.XoX}.m.m.3.2.7.n.o.[ O.[ ) o.    ",
"        7.N.C.c.}.;Xc.N.5.o.c.m.|.:X#XoX|..XM.M.7.2.5.n.3._ { { _ _ n.+X#X+X.X|.;Xn.m.}.n.m.>XN.n.}.N.n.;XY.n.m.*.2.n.N.+X:X+X|.|.}.m.m.3.3.7.n.o.[ o.[ ( o.    ",
"        7.N.}.M.}.;Xc.N.5.O.n.m.|.;X;X+X|.|.M.m.5.3.5.n.3._ { O._ _ n.#X+X+XoX|.;Xn.n.}.N.M.>XN.n.Y.C.M.;XY.n.m.*.3.m.N.+X;X+XoX|.}.m.m.3.3.7.n.o.' O.{ ) o.    ",
"        7.N.Q.L.}.=X7.N.K.8.n.m.|.#X*X-X+X+Xn.m.6.K.c.n.3._ o.K.[ _ n.#X#X-X*X+X>Xn.n.Q.T.M.>XN.9.Y.OXm.;XY.m.m.K.4.m.N.+X#X-XXX+X|.n.m.b.b.7.n.o._ -.:.) o.    ",
"        5.N.7Xb.C.=X7.M.H.G.n.m.|.oXyXH.+X+Xn.m.K.H.x.n.3.) X.6X=.) n.#X=X7XE.$X>Xn.m.7X!.m.:XN.9.K.H.c.;XC.n.L.6X8.m.N.+X*XqXK.;X|.c.m.7XG.c.n.o._ !.H._ o.    ",
"        5.m.G.x.}.=X5.N.q.1.9.m.|..XR.F.+X+Xn.m.6.0.6.m.3.) ' 0.X.) n.+XoXG.K.$X>Xn.c.F.G.m.>XN.7.b.q.c.#XN.n.v.0.4.m.N.+X X!.U.$X|.c.m.q.1.7.n.o.) q.0.( {     ",
"        7.n.N.N.}.=X5.m.5.5.9.M.|.|.oX+X+X+Xc.m.5.4.7.m.3.) _ [ _ ) c.+XoX+X+X+X;Xn.n.n.N.M.>XN.7.m.N.m.+XN.n.n.4.5.m.N.oX|.+X+X+X}.7.m.3.5.n.m.o.) ' [ ) [     ",
"        7.n.N.M.}.=X5.m.5.n.n.m.|.|.+X+X+X+Xc.m.7.7.n.n.3._ _ ' _ ) c.oX|.;X+X+X;Xn.n.m.N.M.>XN.n.m.N.m.;XN.n.n.5.n.m.N.oX|.+X+X+X|.7.m.4.n.n.m.o._ _ [ ( [     ",
"        c.n.m.7.}.=X5.m.3.m.n.m.|.oX#X;X+X+Xc.m.n.n.n.n.3._ _ _ ) ) c.+XoX;X+X+X>Xm.n.m.7.n.>XN.n.m.n.7.;XN.7.7.5.m.n.N.+XoX;X+X+X|.7.m.7.m.c.n.+._ _ ) ( [     ",
"        n.m.n.3.}.=X5.n.2.n.n.m.|.#X;X;X+X+Xc.m.n.n.n.n.3._ ' _ _ ( c.+X+X#X+X+X>Xm.n.n.4.c.>XN.n.m.5.5.#XN.7.7.4.m.n.N.+X#X;X$X+X|.7.m.c.n.7.n.o.' _ _ ( [     ",
"        n.m.9.5.N.+X4.m.3.n.n.m.|.#X;X$X;X+Xc.m.n.c.7.n.3._ ' _ ( ( c.+X#X+X#X;X>Xm.n.n.5.7.;XN.n.n.5.5.+XN.c.7.3.n.n.N.+X#X;X$X;X.X7.m.c.7.7.n.o.' _ ) ( [     ",
"        7.n.n.5.N.+X4.m.3.7.n.m.|.+X;X:X<X;Xc.m.n.7.5.n.3._ _ _ ( _ n.+X:X#X>X,X,Xn.n.n.5.5.+XN.n.n.7.5.XXN.n.n.3.n.n.N.+X#X;X>X<X.X7.m.n.5.7.n.o._ _ ( ( {     ",
"        7.n.n.5.m.XX4.N.3.5.n.M.|.+X;X>X,X>Xc.m.m.7.5.m.3.) _ _ ( _ n.#X:X:X<X,X<Xn.n.n.7.5.XXM.c.n.7.5.Y.M.n.n.3.5.m.N.+X+X;X>X,X+X7.m.n.5.c.m.o.) _ ( ) {     ",
"        7.n.n.7.n.}.5.N.3.5.n.M..X+X;X:X+X;Xn.m.m.7.5.n.3.) _ _ ) ( n.#X;X>X<X+X>Xn.n.n.7.7.}.m.7.n.c.5.C.n.n.n.3.5.m.N.+X+X:X:X+X+X7.m.n.5.5.m.o.) _ _ ( [     ",
"        c.n.n.5.n.Y.5.N.4.5.9.N..X#X:X>X.X+Xn.m.n.5.4.n.4._ _ _ ) ( c.#X;X,X>X.X>Xm.n.n.7.5.}.m.n.n.c.5.N.n.n.n.3.5.m.N.#X+X>X:X.X+X7.m.c.5.4.m.o._ _ _ ( [     ",
"        7.m.7.5.n.Y.5.N.5.5.n.N..X+X:X<X|.+Xn.n.n.5.4.c.4._ _ _ _ ( c.#X#X>X>X|.;Xn.m.c.5.5.}.n.n.n.5.5.N.c.n.n.4.5.m.N.#X+X>X,X3X%X7.m.5.5.3.n.O._ ' _ ) [     ",
"        7.m.5.7.n.N.4.N.4.3.7.m..XoX;X,XY.+Xn.n.7.4.3.7.4.( _ _ ( ) 7.#X+X:X:XY.;Xn.n.c.5.5.Y.c.n.n.5.5.N.7.n.n.3.3.n.N.+XoX>X>X_.`.z.B.5.5.3.n.o.( ' _ ) [     ",
"        c.n.5.5.n.N.4.m.5.*.4.m..XoX#X,XN.oXn.n.5.5.3.5.4.d _ ' ( _ 7.#X+X:X:XC.;Xn.n.7.5.5.N.c.n.n.5.5.M.7.7.n.3.*.7.N.+XoX>X>X_.[.{.3X5.5.2.n.+./ ' ) ) [     ",
"        c.n.5.3.5.M.3.n.5.o.*.n..X+X;X>XY.XXn.n.n.7.3.5.3.d _ ' ( _ 7.+X+X:X:XY.;Xn.n.7.5.3.N.c.n.c.5.3.m.7.5.n.3.{ 5.N.+X+X:X>X3X{.f.{.z.7.2.n.[ d [ ) ( [     ",
"        n.n.4.*.T m.5.n.7.{ O.n..X#X:X:X|.+Xn.n.n.7.3.7.3.d _ [ ( _ 7.#X#X:X:X|.>Xm.n.7.5.*.N.n.n.c.5.*.n.7.5.n.3.' 5.N.+X#X:X%X[.2X{.f.f.z.3.n.[ / [ _ ( [     ",
"        n.6.z C H x.5.n.5.[ O.n.oX:X:X:X+X+XM.n.n.7.4.7.3.d _ [ / _ 7.:X:X:X:X+X>Xm.n.7.5.O.M.n.n.c.5.*.n.c.5.n.3.' 5.N.#X:X:X#X&X3X{.{.2X_.4.n.[ / [ _ ( [     ",
"        c.c.E h S ! =.n.7.[ O.n.oX>X:X>X:X#Xm.n.n.7.5.7.3.d _ [ / ) 7.>X:X:X>X:X>Xm.n.c.5.2.M.n.c.c.5.2.n.7.5.n.3.' 5.N.#X+X;X>X:X&X4X4X{.'.l.n.[ d [ _ / [     ",
"        7.n.5.>.C A #.n.7.[ *.m.oX:X:X>X>X#Xm.n.c.5.5.c.3./ _ [ / ) 7.>X>X:X>X>X>Xm.c.c.5.2.M.n.c.n.5.3.n.7.5.n.4.' 5.M.oX+XoX:X>X%X`.4X[._.l.n.[ d ' _ / [     ",
"        7.n.5.S z ! #.n.7.o.2.m.oX:X;X>X>X:XM.n.n.5.5.c.3./ ( ' / ) 7.>X>X:X:X:X>Xm.c.7.5.2.M.n.7.n.5.3.n.c.7.n.4.{ 5.N.+X|.N.+X>XXXB._.).l.5.n.o.d _ _ / '     ",
"        7.n.5.@.@.%.S :.7.*.5.m.oX>X;X:X;X:XM.n.n.5.5.c.4./ d _ / ( 7.>X>X;X#X:X:Xn.n.n.5.3.N.c.n.n.7.3.n.c.7.n.4.2.].}.U.v.b.XX@XT.c.B.l.5.5.n.o.d ( _ / _     ",
"        5.m.7.4.c z A 6.5.3.5.n.oX:X#X:X#X:XM.n.n.5.5.c.4.( d _ / _ 7.>X<X;X#X:X>Xc.n.n.5.2.N.7.c.n.5.3.n.7.n.7.3.A.{.'.Z.:.&.U.T.|.7.n.5.5.7.n.O.d / ) / [     ",
"        5.m.4.4.4.b #.n.3.c.7.B.oX>X#X:X+X#Xn.7.n.5.7.n.5._ / ) / _ 7.>X<X;X#X#X<X7.n.7.5.3.N.5.n.c.5.3.m.7.c.7.4.'.4X'.Y.T Z b.T.T.7.n.7.5.n.n.O./ / ) / [     ",
"        5.m.5.3.7.;.#.5.3.7.c.N.oX>X;X:X+X+Xn.n.n.5.*.n.4._ ) _ ( ) 7.>X>X;X>XoX<X7.m.c.4.3.N.5.n.n.4.3.M.7.7.7.3.'.2XA.T.Z w h.b.v.c.n.7.5.n.:.F w ( _ ( [     ",
"        5.m.c.3.7.-.4.7.3.5.c.C.+X,X;X>X:X#Xm.n.n.5.o.M.*./ _ _ _ ) 7.>X>X;X<XoX>Xc.m.n.5.3.N.5.n.m.5.3.N.c.n.4.*.l.].k.T.E 9 u.x.T.c.n.n.5.c.A 9 a ` _ ( '     ",
"        5.m.4.*.7.>.3.-.3.5.c.}.+X<X:X>X:X:Xn.n.n.4.X.v.-.d _ [ [ ( 7.>X:X;X<X#X>Xc.m.m.5.3.N.5.n.m.7.3.N.c.3.4.*.3.| K T.T # U V.XX7.n.n.4.;.Y C q * D _ '     ",
"        5.N.=...7.T -.>.*.5.n.}.+X<X:X>X>X>XM.n.6.-.X.b.>.d ) _ ' ( 7.>X:X;X<X:X<Xc.m.n.5.3.N.5.n.m.7.3.N.c.4.*.] 3.@.Q XXT @ 8 U.v.4.m.n.:.S %.H f q Z _ '     ",
"        5.N.@...7.F 4.-.-.5.7.|.#X1X:X,X<X>XM.m.:.#.' :. ./ ( ) _ ( 7.:X:X;X<X<X<X7.m.n.5.4.N.5.n.n.5.4.N.c.4...f =.c.v.U.T @ 9 I.%.n.n.n.4.S ! n q / ' ) '     ",
"        5.N. .=.c.F 4.#.-.5.4.|.#X1X:X<X1X:XM.m.;. .` &.G d ) ) _ ) 7.+X;X;X<X<X<X7.m.7.7.7.N.5.n.n.7.7.M.c.n.T w #.x.L.L.T @ x U.Q c.:.n.3.x W Z f ( ' _ '     ",
"        5.m.J =.7.F -.#.O.5.4.@X;X1X;X<X<X:XM.n.;.H ` $.J d ) / / _ 6.T.#X;X<X,X<X7.m.5.7.n.N.5.n.c.5.n.M.c.n. .q Q :.j.1.E @ b b.&.;.:.n.>.4.@XO.) ) _ _ '     ",
"        5.m.J #.-.F #.O...>.-.=X;X>X#X<X<X>XM.n.;.C f @.J u ( u / _ :.b. X;X<X>X,Xc.m.5.c.n.N.5.n.5.7.n.B.c.7.=.8 n :.Z Z C $ Y %.%.@.5.x.-.7.;XO./ / / ) '     ",
"        5.m.J Q  .a  .o.J 4.O.=XY.T.;X<X,X:XN.n.:.r u $.F u f 5 / /  .%.M.XX<X>X<Xc.m.5.c.7.N.4.5.3.7.n.m.c.4.4.9 j v.Y 0 x $ Y Y %.T -.:.4.n.;XO.u d d ( '     ",
"        7.:.H L F a  ...C n.>.T.;.L.;X<X>X:XN.c.@.w f $.a u s 5 d y T ^ v.XX<X>X<Xn.m.7.3.4.N.>.-.O.7.n.M.c.-.>.q h b.R # h $ b w Y T >.x.n.m.;XO.t t u f '     ",
"        7.x.c L T a J ..Y n.a h.#.T.+X<X>X;XM.c.T c s Q s t g y f 2 E ! $.v.>X>X<Xn.m.5.X.*.N...-.F -.5.M.-.o.#.Z > Q Z # > $ 0 9 Y i #.:.j.m.=XO.t t i f '     ",
"        4.-.q K @.i s  .S x.0 ! :.Y.XX>X>X|.6.4.Q 8 5 Y i t r y r 2 Y A %.j.:X>X:Xc.m.3.T =.M.T #.A >.4.n...] &.T $ x i % < - 6 6 % q >.$.n.c.+X+.. t D S G     ",
"        7.f 3 z @.w r G x %.9 e x.U.Y.;X+XXX..4.H @ 3 w e y 3 y 2 r x b %.$.>X+X@X7.c.*.J =.c.E H b =.3.6. .S Q C * h x % > : @ @ @ 0 T h.c.7.Y.] . u v A '     ",
"      Q =...3 k K q 5 f 9 x Z e b.M.Y.j.! V.#.F C @ 3 0 3 5 3 5 o g 8 v $.E =XT.V.4.4.*.J o.-.Z Z V #.-.:.J ! Q q 8 > * h , : @ + $ w Y j.>.4.x.Z . f m Z '     ",
"      A 6.@.e ; l q 5 s 6 @ Z i &.&.V.x.%.u.Q x i @ # 0 4 5 3 4 2 g % k C Z T.h.T.;.G -.F .. .w n B #.>.;.Z L S q 8 < : k , : + + @ w A $.4.-.&.q y C N G '     ",
"      j j.S r > l 9 5 r 9 @ s w  .! u.U.h.v 8 j i > @ 6 O 4 3 o 3 2 % , c C V.Y v.Q x ..i T S 7 k V *.] @.A ! C 8 % : - k m : + $ $ 9 b $.-.r T b i v V ' '     ",
"      1 ! n 3 > V # 3 7 z o 2 6  .%.W b.! v > , k & + % O 4 4 o 2 % : 1 n w ^ 9 T q Z T q H n * , N #.F H V h.w * $ : : h m < + $ @ + b  .e e Q.rXW k L ] '     ",
"      1 v j 8 - V @ q j & X 2 0 E ;.l ! h A l 1 j 8 + : X o 2 o # o : 1 n q ! * q h w Z 0 C h > m B K w D V L c % % : : h 1 < + % $ $ n a J.eXhXhX^.N J F '     ",
"      1 < j h % l @ n 8 % = # 0 E &.v h > ! V 1 9 x $ % X O X X 6 2 , 1 x 6 b 9 % b w w 6 n , < N N r q 9 V v c * % & : h 1 < @ : + % q F.lXcXvXlXaXu.S ] '     ",
"      , , j h h k % j 8 : + # 6 E Q ! N W u.I l s.S.y.k O O X X # 2 1 1 z % v w v q 0 q # j 1 1 k k 7 V z r.V h > : : $ * 1 < $ : $ : b fXvXvXlXhXhXD.S H G     ",
"      : , B l h k l l k : + # 9 i c C I p.m m y.`.2X`.r.X O + + $ 6 , , j $ h 9 h $ # 6 @ 8 1 1 > , * V z w.V * : < : $ * , < < : $ - u.xXcXjXhXhXhX^.K D '     ",
"      $ , k V > w.B l B : $ h > k v b B a.1 m S._.{.{.s.# X + + $ $ > , h $ 8 $ < $ + @ @ & 1 1 > , q V B e.V 9 : < : $ $ < : , : - < p.cXxXhXhXhXhXrXV a '     ",
"      + , , B w.w.w.m m : % k 8 > M j , , 1 m A.{.4X[.s.h @ $ $ $ - < < & $ * $ > $ @ @ @ : 1 1 : < 8 V r.t.k j : < - $ @ < : , % - , 0XvXlXpXhXhXhXuXA f [     ",
"      $ > , , e.w.t.w., 1 1 B > 6 k < , < 1 w.5X{.f.g.d.h $ - - $ < < , $ $ $ $ : @ $ $ $ : 1 1 : $ > j e.t.< , $ : - $ + < < , $ $ N fXvXjXeXiXhXhXuXU f '     ",
"      * > M M e.t.i.B , , 1 B B h h , , , 1 V S.{.{.].y.% $ - < $ % : , $ $ $ $ : + - < % < 1 1 : $ @ m t.e.< 1 : $ : $ $ % : < @ $ p.cXcXhXtX/.pXhXpXW z ]     ",
"    + h W.jXkXsX(.i.l M m 1 B w.B % 1 1 , 1 , l k.].s.k : % < , < : $ < $ $ $ : $ + : < - < 1 , < + % B t.w.$ , % $ : $ $ $ < $ + > qXvXlXhXiXF./.pXiXW w f     ",
"    8 W.hXkXxXxXdXJ.u.fX0Xa.m w.B $ 1 m M 1 > % > V ; @ < < > 1 , < < $ $ $ % : $ $ $ < $ > , , $ + < M i.w.$ < % $ $ + + % & * & J.xXcXjXhXhX9XF.E.E.W % c     ",
"    ^ aXhXhXhXjXxXqX^ 0XrXdXu.w.; : 1 1 m 1 , < < $ @ + < 1 < 1 , , % @ $ : $ < : $ + < < < < < : $ h J.dXrXU > < + + @ & I ~.wXuXlXvXlXhXiXiX8XF.R.R.^ W W     ",
"    F.iXhXhXhXhXjXzX^.p.9XkXdXi.$ - , , 1 1 1 > < $ + + : 1 , 1 1 1 < + $ < - < > $ $ , , < , $ $ * 0XzXzXjXaXW < + @ W rXiX8XpXlXcXlXhXhX8XF.,.D.P.P.eXkXkX^.  ",
"  ~ P.eXpXeXiXhXhXkXqXI eXhXkX~.$ $ : 1 1 1 1 , 1 $ $ @ < 1 1 1 1 1 < $ @ , < , < < : 1 , , 1 $ @ ~.zXjXhXhXhXE.h $ J.pXhXeXR.yXhXjXhXhXiXW.R.P.G.D.P.gXhXjXkX  ",
"  <.R./.8XgXhXhXhXhXuX~.gXgXiXhXJ.$ - 1 1 1 1 1 1 : < $ , 1 1 1 1 1 1 : % , , 1 1 , , 1 1 1 m k W fXjXhXhXhXhX8XW p.pXhXgX8XR.E.pXhXhXgX8XR.R.R.R.G.E.gXhXhXjXzX",
"  ~ G.R.8XgXhXhXhXhXgXpXhXeXtXhXjXp.< 1 1 1 1 1 1 < , , 1 1 1 1 1 1 1 < , , 1 1 1 1 1 1 1 1 a.0X9X9XpXhXhXhXpXE.D.aXhXgX8XR.R.R.yXgXhXaXW.R.R.R.R.,.W.pXhXhXhXhX",
"  P ,.R.R.wXgXgXgXgXtXyXeXR.eXhXjX0XM 1 1 1 1 1 1 1 1 1 1 1 1 1 1 1 1 1 1 1 1 1 1 1 1 1 1 B ^.E.W.D.8XhXhXgXwXR.yXhXhXwXE.D.F.R.E.yXtXE.R.R.R.R.R.,.P.8XgXgXgXaX",
"    R P.P.E./.8X8X/.R.R.R.G.8XgXhXuXI 1 1 1 1 1 1 1 1 1 1 1 1 1 1 1 1 1 1 1 1 1 1 1 1 1 1 I F.R.R.<.F.gXpX8XE.P.wXgX8XE.R.F.D.P.P.P.P.P.R.P.,.P.F.R ,.R.E./.E.R.",
"    p P ,.P.R.R.R.P.D.P   R P.E./.R.I                                                     v R ,.R p j.E.R.R.P.,.  E.P.G.,.P p p p E E ~ j.<.p p p p a ,.F.D.R   ",
"      p p E <.E P             R                                                                 p   P ~ ,.,.E                                                   ",
"                                                                                                                                                                ",
"                                                                                                                                                                "
};
