/* XPM */
static char *_88be4d38af64ca4bd226224bd69156e6hvve6H9mujNClwr[] = {
/* columns rows colors chars-per-pixel */
"80 80 256 2 ",
"   c #030303",
".  c #05050A",
"X  c #0A060A",
"o  c #0B0A0C",
"O  c #160809",
"+  c #030916",
"@  c #0D0D13",
"#  c #110E13",
"$  c #111212",
"%  c #141315",
"&  c #1A1615",
"*  c #16151A",
"=  c #19171A",
"-  c #1C1B1D",
";  c #2F1712",
":  c #271917",
">  c #221D1D",
",  c #1E201F",
"<  c #2E2D0D",
"1  c #27211D",
"2  c #39251D",
"3  c #071925",
"4  c #161923",
"5  c #1E1C21",
"6  c #3D0E27",
"7  c #211E22",
"8  c #2C1C26",
"9  c #351927",
"0  c #1A262C",
"q  c #0D2634",
"w  c #192935",
"e  c #242224",
"r  c #2A2424",
"t  c #292926",
"y  c #252529",
"u  c #2A262A",
"i  c #252A2B",
"p  c #2C2A2C",
"a  c #342523",
"s  c #33232C",
"d  c #322C2C",
"f  c #3A2A28",
"g  c #2D302E",
"h  c #39312D",
"j  c #252C33",
"k  c #2D2D31",
"l  c #272F3A",
"z  c #322D32",
"x  c #3A2932",
"c  c #2D3032",
"v  c #2A343C",
"b  c #333234",
"n  c #3A3334",
"m  c #363539",
"M  c #3A353A",
"N  c #393839",
"B  c #3C3A3C",
"V  c #45201D",
"C  c #4A1830",
"Z  c #432828",
"A  c #46342B",
"S  c #472736",
"D  c #582B38",
"F  c #483936",
"G  c #423C3D",
"H  c #553B35",
"J  c #653339",
"K  c #4A413E",
"L  c #574339",
"P  c #6A493B",
"I  c #193447",
"U  c #13324A",
"Y  c #2A3641",
"T  c #3B3A43",
"R  c #313E56",
"E  c #283E68",
"W  c #5A2B45",
"Q  c #473640",
"!  c #423E42",
"~  c #583947",
"^  c #672A47",
"/  c #6F3750",
"(  c #1B4157",
")  c #38474E",
"_  c #294859",
"`  c #324E6E",
"'  c #3A647A",
"]  c #444344",
"[  c #4B4749",
"{  c #49454A",
"}  c #564B47",
"|  c #534E53",
" . c #505152",
".. c #545255",
"X. c #595859",
"o. c #6E4E4C",
"O. c #6A5549",
"+. c #785749",
"@. c #776457",
"#. c #645768",
"$. c #4E6776",
"%. c #666667",
"&. c #756E6D",
"*. c #777879",
"=. c #833858",
"-. c #903860",
";. c #C63A7E",
":. c #845B4A",
">. c #895056",
",. c #A24655",
"<. c #88624E",
"1. c #886756",
"2. c #966B57",
"3. c #8D715E",
"4. c #9A735D",
"5. c #A3755B",
"6. c #A9785B",
"7. c #B0755F",
"8. c #964D6C",
"9. c #AC5275",
"0. c #A55678",
"q. c #8A6F64",
"w. c #967664",
"e. c #A77B65",
"r. c #B37B65",
"t. c #AF7570",
"y. c #D95B5E",
"u. c #CB5674",
"i. c #DC567C",
"p. c #E3547E",
"a. c #E3587C",
"s. c #9C8D68",
"d. c #A9826B",
"f. c #B7856A",
"g. c #A98773",
"h. c #B98B73",
"j. c #BE9278",
"k. c #EEA55C",
"l. c #C38C73",
"z. c #C79478",
"x. c #CB9378",
"c. c #F7E75F",
"v. c #FAEC67",
"b. c #354F8B",
"n. c #386F90",
"m. c #3970BA",
"M. c #4D7791",
"N. c #47749D",
"B. c #7D7F80",
"V. c #295ED0",
"C. c #3574CC",
"Z. c #497CCA",
"A. c #CB3E87",
"S. c #B25A85",
"D. c #9D6987",
"F. c #B4668D",
"G. c #DB4A8A",
"H. c #C95B8F",
"J. c #DB5984",
"K. c #DD4593",
"L. c #D94995",
"P. c #DD4B94",
"I. c #D95797",
"U. c #E14B8A",
"Y. c #E25682",
"T. c #E24896",
"R. c #E3549A",
"E. c #C96A8E",
"W. c #D86587",
"Q. c #CA6596",
"!. c #D76598",
"~. c #E46698",
"^. c #D76EA3",
"/. c #3782A8",
"(. c #3B89B5",
"). c #3B90B7",
"_. c #49859E",
"`. c #638892",
"'. c #4686A8",
"]. c #578AA8",
"[. c #4D90B4",
"{. c #5998B9",
"}. c #6B99AD",
"|. c #6598B7",
" X c #56A2BC",
".X c #70A5BA",
"XX c #3E8DCE",
"oX c #3FA4DE",
"OX c #4B90C8",
"+X c #479AC9",
"@X c #469AD5",
"#X c #589BD8",
"$X c #4BA1CD",
"%X c #55A7CA",
"&X c #4BA6D7",
"*X c #44A4DD",
"=X c #4CA5DC",
"-X c #57AAD9",
";X c #50B3D5",
":X c #57B3D6",
">X c #66A6C8",
",X c #65ABD4",
"<X c #6AB5DB",
"1X c #75B1D0",
"2X c #43A6E2",
"3X c #43A8E3",
"4X c #4AAAE3",
"5X c #4AA8E4",
"6X c #57ADE3",
"7X c #4DB2ED",
"8X c #58B4E6",
"9X c #6DB6E5",
"0X c #57C0EA",
"qX c #6EC5EA",
"wX c #858687",
"eX c #928985",
"rX c #979797",
"tX c #AB9A90",
"yX c #A5A6A6",
"uX c #ABAEB1",
"iX c #B8B8B8",
"pX c #C99A82",
"aX c #D49C84",
"sX c #CAA28B",
"dX c #D6A488",
"fX c #CAA997",
"gX c #D8AB94",
"hX c #DCB399",
"jX c #E1A892",
"kX c #E4B59B",
"lX c #C185A1",
"zX c #D5B3A7",
"xX c #E7BCA3",
"cX c #E7D89F",
"vX c #ECC4A9",
"bX c #F2CBB3",
"nX c #89B8CD",
"mX c #81BBE4",
"MX c #90C4D9",
"NX c #8ECBE8",
"BX c #A4DFEE",
"VX c #B6E7F4",
"CX c #C7C7C7",
"ZX c #DBCECA",
"AX c #D6D7D8",
"SX c #E7D2CB",
"DX c #CCEBEF",
"FX c #E6E8E8",
"GX c #EDEFF1",
"HX c #EEF2F3",
"JX c #E1FCFF",
"KX c #F2F4F5",
"LX c #F4F6F8",
"PX c #F6F8F8",
"IX c #F6F9FB",
"UX c #FBFCFC",
/* pixels */
"p PXUXp yXp UXAXp p t *.CXiX*.N p p c k k w 4Xq |.*XN.w XXC.oX-Xj l j =X8Xi mXk <Xi p j j i 8Xp p p p k ' ' O.p s.c.c.c.< z.k.k.y.t p e 0.t 0.K.F.8 K.K.Q.9 T.P.",
"FXPXp CXN PXUXrXt p %.d p e c p c b b k k 4X6Xj 4X-Xv =XXXXX-Xk z p 6X4X0 <Xn.0 3XI k k p l i k p p k p w 0 MXk 1 v.c.c.cXh k.y.a 9 t 8 =.r S.K.K.r I.K.K.u P.T.",
"PX .p UXp p p g ] UXp UXPXe FXp N b N p w *X0 >X2Xl OX@X@X6Xj ) p ,X3XU I 3X0 .X3X-Xi y ].0 p p p p p l p i NXp p v.c.c.v.g t p y.y.0.u H.9 -.K.K.0.6 K.K.9.C T.",
"t p UXp c p GXt PXUXt LXPX- UXp p k p g {.3Xj *XU U *X*X5Xj ,Xw _ 2X6Xt 3X3Xw ' 3X3X3X4XI j p p k i i _ 9X0 t e p s.v.cXt :.y.V u.U.I.u I.9 9 K.K.K.8 L.T.K.H.T.",
"K UX] b p FX] rXHXrX- KX .PX*.p p b p c -X-Xw -Xk *X@X=X0 ,X=Xj *X*Xq ,X*X*X=Xi -X3X,Xj k p p y Y ].8Xi 6X4X$Xv.s.t < t t y.y.,.C T.K.t t S u P.K.K.Q.9 K.T.H.9 ",
"UXp p UXt PXt UXHX..N KXt UXt PXp N k k *X,X' w w *X*XU _ 2Xn.U 2X6Xi 2X3X2X2X-Xi p p p k p p 9Xe 4X4X` i <XBX< t p u p d E.K.I.8 K.K.^ p y p 9 L.K.T.P.8.s C P.",
"p p UXPXe PXt PXHX[ B KXt UXt UXp B k k 5X{.j j ,X*X6Xi 2X*Xi -X*X[.0 5X3X*X2X2X<Xj p p w 0 p w w 9Xw i j j z k p p 8 I.9 / K.K.p P.K.L.t 8 ^.t 6 P.L.9 ^ G.K.P.",
"b g UXUXc PXe UXHXwXN KXt UXt UXk b c k 5X%Xc c 2X*XI M.*X8Xp *X*X6Xp =X2X3X6Xq p p p q |.p j k j z l n.MXk k 8 !.p R.C 8 9 T.T.6 Q.K.K.Q.t d p x x ~ W.Y.G.9.n ",
"b b p e t UXCXuXKXUXN KXt FXt UXt p k k 5X-Xj i *X*X0 -XoXN.j *X*X*X>Xi t i I c k p j q p k k k m I 2Xn.j k / H.G.z b 8.I.u P.T.I.s T.K.K.Q.d Q.C 8.p.p.H.x D J.",
"X.b UX- g e UXp PXPXe PXwX*.b UX[ c p k =X4Xp i 2X*Xq -X*X'.j *X2X2X*X2X2X4XU k k p k j k k b v @X2XI v k I.I.s Y./ F.T.!.p 8.K.T.6 8.T.T.P.T.C 9.i.W.F S J.p.u.",
"UXp PXKXPXiXp p e UXe UXPX- KXB PXb ..c >X*Xw p 2X*X{.` *X4Xj -X2X*X2X3X,Xj p p k k j k b m N.C.#Xv m k I.L.P.u Y.W.S 8 9 ^.t P.K.K.9 H.K.K.S 9.p.,.Q E.p.p.8.^ ",
"UXp PXHXKXKXKXFXt t iX1 UX- UXt UXp b p j 2X6Xk >X*X2Xi -X2X,Xi j w j z g b b k p k c v R C.V.n.Y c k I.^ S.U.x G.i.~ F.R.C r 9 K.T.T.H.P.S u.a.=.F i.a.J.~ G T.",
"] b t AXPXHXHXHXKXPXe p ..g UXN UXt b p c ( 2X_ i 2X*X-Xp -X4X@X@X{.) p e p 5 b b k Y Z.V.C.R Y mX%.s 8 p / Y.8.I.Y.W.C 6 9 T.D 9 T.T.P.S 9.a.>.F Y.a.9.G F.b z ",
"b b e p t p N PXPXKXHXUX- b p UXe CXb ] k z -X*X0 w *X5X&Xl Y >Xv B p p > - & & > e U b.b.) Z.[.k D.u I.^ 9 U.J.^ U.p.D s T.R.8 d x I.9 9.p.,.~ i.p.J G s R.s d ",
"c UXyXAXPXe wXp g ] UXKXPXUXB b b t k k p k w *X*Xw w @XOXN.) ! b p - > 1 > & > 1 r 1 > > b.` T I.!.9 0.p p G.p.8.G.p.i.x I.s p / I.x 9.a.9.~ i.p.^ S I.x b s P.",
"p UXp UXKXe UXKXt AXrXp rXPXKXUX] g b b N w w ' 2X2X].b $.N ] G N d 1 r r h d > r d > > r d n n 9.L.s 9 R.p I.J.u.8.G.p.G.u s S R.C >.a.H.} J.p.S / T.I.d 9 T.T.",
"p p p UXPX- HXKXt UXPXe b p rXPXKXUXe b b k mXk {.*X&X}.[ d N ] } G r F F L L H H H A 2 > r d h 9.-.s !./ p 8.U.i.9.U.Y.p.G.C P.9 o.a.E.o.Y.J.S n 8.8.g / T.P.W ",
"%.y g p b FXKXUXp UXPXp PXPXb t UXHXKX*.p b k NXz _ |.] d d [ K A F L O.O.O.+.<.1.2.<.<.<.f O : : -.8.d 8.^.s T.G.J.^ G.Y.G.P.9 D i.W.o.Y.J.G S.E.b p Q.P.T.9 p ",
"KXKXPXt t p ] p b b t iXHXKXp PXe UXHXHXPXk [ p p } } n G [ A @.d.g.e.d.e.e.5.5.5.5.5.5.5.4.L O n : 9.x I.9 p Q.K.K.=.I.U.G.C D a.W.~ J.W.S b I.9 k !.T.P.8 d s ",
"PXPXKXKXKXKXAXp b p UXHXHXPXp KXPXt UXHXHXPXp t N F B 1 f d.dXx.dXx.l.l.f.h.f.r.6.5.5.5.6.6.5.O.O > : ~ t 8.~.t T.K.T.C Q.C S i.W.~ J.W.x I.S.z k I.T.P.u k k o.",
"p - PXPXHXHXKXKXUXp b PXFXt KXHXGXeXp UXHXHXKXN ] n a 2 gXkXdXdXx.x.z.l.l.l.f.f.r.6.6.6.6.6.6.2.f & & Z S 8.u p / K.T.T.s C a.Y.~ W.W.x z R.s s L.T.R.u c ^.p p ",
"PXUX] p X.PXPXKXKXKXAXp b X.HXKX] iXUXe PXHXGX%.d G h hXxXkXkXdXdXaXx.z.l.l.f.l.f.f.f.6.6.6.6.6.O.r O : o.p ^./ p I.T.^ 9 p.J.Q W.W.x ^.o.c u P.T.I.z s b #.p F.",
"PXKXKXPX*.p p PXHXGXHXPXyXp AXUXp UXUXp N KXFX[ n > @.kXxXxXxXkXdXx.x.x.l.l.l.l.f.f.7.6.6.f.f.f.2.r & & 8.x 9 9 ^.p Q.s Y.Y.~ W.W.M s R.y 8 P.P.I.k z 0.p p p 6 ",
"t t rXUXUXUX*.p ..PXHXHXHXPX] p ..UXwX&.t PXFXn d } w.kXvXvXxXxXxXdXaXx.x.l.l.h.f.r.r.6.7.f.h.j.e.a O a J !.u I.u lXb J.Y.~ W.W.x F.k p s U.U.I.p c b c c j k p ",
"UXUXUXN p t rXUXwXp GXHXHXHXHXUXp b p UXUXt KXeXr n q.xXvXbXbXvXkXdXx.x.x.l.l.l.f.f.f.f.d.f.f.j.h.Z & O ; G.9 u ^.s !.Y./ =.~.S s R.s S J.Y.!.z b c c }.:XNX,X9X",
"p e yXUXUXUXiXp e UX[ e PXHXGXHXPXp b iXrXb X.&.h d q.kXbXbXbXbXkXjXaXaXl.l.x.aXl.h.h.e.@.H w.f.f.2.h O O G.T.6 C 0.Y.>.S !.z F.s u x J.J.E.m z ..1X:X:X:X<Xw 0 ",
"rXAXAXp c e wXUXPXp e PXe wXKXHXHXUXb p %.UX1 } & d @.hXbXbXvXxXxXxXgXdXpXpXz.z.h.w.A : > f O.A d.f.; & >.u.P.s ^ Y.E.M 0.k 8 I.d x J.i.9.M b I =X;X:X:X) j 1Xw ",
"KX..p b yXUXCXt p N b b e p p UXHXKXuXp ] X.r F d d } kXvXvXbXxXzXgXpXpXz.z.h.d.+.L +.<.4.4.g.w.2.h.d.a +.9.=.S Y.W.Q x z 8.p d 9 i.i./ T m |.-X:X:X>XY l l 6X*X",
"p wXUXUXGXt t rXUXUXCXe c b N b ..PXHXFXb b iXn 1 r } hXxXvXO.} h : : H 1.e.2.w.w.:.P @.1.3.w.2.d.h.f.2 Z o./ Y.W.M x b ^.R.p 6 p.p./ T R {.*X&X;X Xv ].7X<Xy 0 ",
"UXUX*.t , iXUXrXt y UXPXUXk b N b p UXKXKXb b r > r F xXkXL q.tXtXw.<.2.d.pXh.h.h.H H &.h ZX+.d.f.j.h.1.: o.i.u.G z k 8.p p S J.J.D M ) E @X&X%X%X-X=X_ i 0 k I ",
"KXHXHXHXPXFXt - UXUXt p PXPXUXp b b b FXHXiXAXGX& F F vXgXsXsX:.sXa Z P <.jXkXr.f.+.+.+.:.e.g.4.2.f.z.j.H t.8.M z d Q.I.c D J.Y.D z T ` m.@X:X%X' -X5X4X8Xp M.*X",
"e CXUXPXHXHXHXUXt t PXPXt p UXPX%.c b b *.LXk PXSXzXL xXgXdX:.V ZXL q.:.2.jXxXf.f.2.:.:.<.e.5.5.f.f.j.z.P J F n s 9 s p / Y.J.=.z 8.T ` C.&X%X_.,Xw i q 0 e =X=X",
"%.b p c e KXPXKXHXUXt t UXKXb e UXFXk b c B.UXb a jXA vXkXhXgXhXhXd.:.:.aXkXxXl.r.f.2.2.2.2.6.r.h.z.z.l.o.: a x D 0.p 8.G.U.8.p p I.R b.XX-X%X-X-X4X8X( i _.3Xw ",
"AX%.PXp p ] b e UXPXKXUXp [ UXB p PXUXp b k KXFXd @.L hXbXvXgXxXgXz.e.dXkXbXkXl.r.r.f.e.6.6.f.h.pXz.pXl.1.x Z >.a p 0.G.G.9.d ^.t F.` m.@X:X{.4Xw j j t {.*X%Xl ",
"UX] UX] c PXb &.p k KXKXLXp t PXUXp rXUXc b k PX! @.P pXvXvXxXdXdXx.x.dXvXbXvXx.f.r.f.5.r.f.h.z.pXdXpXh.1.9 8.D d 0.K.K.0.u y I./ m ` C.@X%X` w ,X8X}.i 5X*X$.].",
"UXm k b m b N p p N p p KXPXe ..HXPXp AX] p p ..AX} e.xXvXbXvXxXgXjXx.jXdXkXvXaXl.f.l.P 5.e.l.pXpXj.z.<.+.C > p S.K.K.=.u / 8 F.9 Y ` C.-X%XI _ w t i 0 *X=X|.@X",
"N N N N m m m b b N [ N b HXPXp UXHXUXp UXb PXB KXF +.hXvXvXvXbXvXkXdXl.r.bXvXaXr.t.e.:.:.5.h.z.pXsXj.3.2.!.t Q.K.K.D y t P.I.k p v ` C.:X%X,X*X3X4Xw q *X'. X@X",
"N b KXUXb m m B PXUXg c k wXKXUXp KXHXwXc b FXn iXeXH fXxXvXbXbXbXxXaXr.r.aXJ 1.1.f ; P 4.<.e.pXh.pXe.:.1.t H.K.K.6 y I.8 W 0 i -XY ` C.:X].l t i q j ` *Xn. X$X",
"b UXUXp m N N b PXHXPXb m N k AXyXB.HXKXp m b ..F ZX} d.e.vXvXvXvXxXaX2.sXH 2 f 2 : a & : 2 :.h.sXe.w.4.+.!.K.L.8 u t I.I.y i =X2XI ` C.:X$.-X8X<XMXi n.*X'. X@X",
"UXUXm N m N m m UXHXGX] N N m N m b UXHXPXb B rXh PXN zXj.hXvXxXxXkXpXw.+.a H f H A 2 A : : 2 P g.4.d.4.J P.I.8 y I.C 8 y 4 2X2X,Xv ` XX;X) c t i t p ' @XN.%X@X",
"PXp m B N N B c PXHXHXB.] X.b p b k p UXPX) B UXG PXu F fXpXkXvXgXhXpXP A Z J +.<.o.; Z : : 2 H +.w.3.+.^ S.e W y Q.C i q *XoX6Xj v b.OX%X) M.,X,XN.p I XX/.%X$X",
"FXB m UXb m b FXHXHXPXp PXUXy PXt UXb b t PXt &.n FXt PXg.g.xXgXkXdX<.P 2 2 <.t.t.t.7.<.P 2 f A A +.<.O.a t t P.D y i S.>X*XN.t {.w ` OX%X) 0 q U _ p w @XOX X%X",
"b B m PXPXGXUXHXHXHX*.yXKX) rXPXp UXUXN UXb b N N KXt p L sXgXhXsXgX+.Z 2 1.gXpXe.<.<.2.w.O.A A L O.O.A p Q.u o.y 8 L.A.>Xq i ].3Xw R m.%X_ %X4X,X0 i k @XXX$X%X",
"p k m PXHXHXHXHXHXUXp LXPXb UXUXp LXUXc LXAXp b p GXp FXKXg.sXj.pXpX3.A 2 :.e.P Z 1 A L P A 1 A A A A a d I.8 e W K.;.UX7 y p y k j R m.%Xn.j i N.=X9Xk -XXXOX%X",
"UXb B rXHXHXHXHXUXp PXLXN uXPXp UXLXAXN KX&.*.p c PXb t t } tXsXh.3.q.L } } 1.L : : a A H r : 1 > 1 f 0.S - p !.K.u.2 p % m y i i i m m.%X%Xp =X5X[.i c Y @XOX%X",
"PXFXc X.y KXPXX.p UXKXFXp PXc iXHXKXp PXLXy PXp p PX[ p ..n O.q.g.O.F K F : F P L a h 1 h d & 1 : > a > O   % & O u X o   o p ].5X-Xk Z.$X%Xw 0 0 ` M.j c @X@X[.",
"PXp B UXUXCXiXUXLXLXGXp UXrXX.HXHXHXb HXUXp PXb t UXm u B w.uXq.w.L F > > d r h A a a r h : r - t h F M.t   %   X -   o   o = l 0 p j n.m.(.,Xt -XU 0 >Xw w @Xm.",
"UXm k k UXLXLXLXPXp e UXFXp PXHXKXc UXKX[ ..N e 7 d # z n yX>X@.@.L } a r d > n d > r > 1 r & - r d } _ %     X   $     .   % - > > u v OX-X@Xw k >X*XM.i l {.XX",
"yXFXKX..N b p p e PXLXUXp UXPXp 7 [ = % $ = p M M r > > n VX&XhXO.F } n K > > > : a O - e - > p r A eX'.+ -       % .       o & o = - > 1 y w <X) |.q _ *Xl v OX",
"t UXKXPXp p UXKXKXPXCXp UXd ] 7 p p = 7 y 7 ! o d G n % M %XDXCXw.@.F F n n d & 1 > X N & p r d [ A M.'._ % o   $ = . .       % $ % = - - > > e 0  .q =X0 _ Y l ",
"b LXKXT UXp N y y b *.% n ] z p y = n e = 7 n t X y ] y > <X%X].hX<.L h h n r r d > & r e p d r @.g.'.'.M.  @   = - % o       % e @ = = - > > 7 > 7  .t >X%Xj c ",
"N LXPXm PXFXFXN rXp u t n t 7 > z - = b p y t p z   7 ! & MX.XVX> xXd.g.a ] n n n r r d r d } +.w.> '.n._ %   % - = . %     . * p t % & - % 7 - > y p  .' 0 -X].",
"b KXPXb HXp FXUXX.G y b B p 7 - z p 7 = p b p t p p r # z $.DXDX` : hXsXsX+.O.O.f O.L F A q.d.g.O $.n.n.3   $ 5 - . %       o = - o . = * @ p % > 5 - u $.>Xb.i ",
"N PXPXk KXX.*.rXG d 7 d M e y - r G t > - y z z z z d p y + VXBXMX. 5 : fXsXh.g.4.g.g.g.q.O o *   _./.n.. % - - o @ -   .   o = =     t % % u % = t u > u `.p p ",
"b UXPXN PXUX] [ G ..p b 7 5 e - y z M z t - 7 y y t p t p p VX%X<X. . % - = = - = - = = % # . .   /././.= - % o . e     o   o - -   = - * o = * % t % % u e }.i ",
"FXm KXp UXPX| B M ! z p e - 7 e u u b G M z - = > t t e 5 7 9X:X.X. @ 5 5 * % % % % @ @ @ @ @ 4 3 '.(.'.- % o $ - % . @ % o o > - . o   p $ & - % - o % - y 5 |.",
"PXm UXUXb B ] M M B [ t e - - e r p p M B n t y # y y 5 e - }.VXBX3 . . @ = * - = * @ % 5 5 # . M././.M.o @ % - e o @ % @ @ % 7 5 % . t % % % p o % 7 t % 7 t - ",
"UXKXb UX..[ N M M ! d z 7 - - 7 u r z z M b M z p 7 = e 7 - 4 BXDXBX. . . . * 5 7 5 - * # .   e [./.n.3 . = y - 7 % % * * % = y e & % = $ b o - * o z t o u e e ",
"p UXX.&.X.] b b ! B r p 7 7 7 y z p d d b z z b b z e # * * % qX8XqX. * 5 5 5 5 - * % @ . y 5 # (.(./.. o y y - = % = - = % - e e % = - = - - $ > . = = . e y e ",
"N AXPX%.[ M p b G ! t 7 e t p p d p u p z n p r t b b y - * - qX8X0XM.@ * 5 5 * - = - 5 5 5 % . +X(./.  e y p 7 = = = - = * 7 y t = = > 7 - e X e 7 @     % e > ",
"B B PX..| M z b ! [ t z e = r p b t b z p z b y 5 y p z z 0 5 + 8X;XqX. + * - 5 5 5 5 5 5 - * I [.(.'.% - 7 p 7 - * = = * % 7 t d = - - e - > b - = . e % % > - ",
"N b &.[ ! ! t b ] | b t y b p z z p z M t n M p y 7 - y z p e - :XNXJX3 + @ % * - 5 - 5 5 5 5 {.XX(.' 5 - - p 7 5 = = = = * e e b = = > e e e 7 - o - - - o > > ",
"UXUX[ | M n M z B ..[ M b z p n t y 7 y d p d z z y 5 5 - e y y nXDXnXDX@ - - % = * = - 5 = * ).).(.+ 5 - 7 p e - - = = * = e e t - - - e e e e e e @ % = % e e ",
"PX*.| ! n n z M z ..G b z p B b n y y u p u p t t y 7 - - 5 5 5 4 4XBX<X+ = 5 5 5 - - - - - * XX/./.* - e e t t 5 - - = = - e e u - e > e e y e u e   % - - = e ",
"UXX.X.B p z b n ! B G ] m B ] ! ] t p t d p u u u u p y e y 5 7 = >XBX:XMX@ = 5 e e y y 7 e I XX[.'.y t y t e e 7 5 - - = = e e e r 7 > > e e u u p e % % p t e ",
"rX..[ [ b ] M M p d B y z B G M z p r y y y t u r p t p t y y e 7 v 1X%X:X@ % - 5 7 e e y e 1X@X+X].e e e y e e y e e 7 - = 7 e e > - > 7 e e u u d e * o = > e ",
"%.| ] | t ! ] [ [ n 7 M M [ z e y p p p p t u t t u u r y y p y t 5 >X+X&X_ * = - 5 7 5 5 7 $X+X@Xq 5 e e e e e e y e e e e e e e e - e e 7 e e p p d   % % 1 : ",
"X.[ ] B | p M ! B [ ! M ] p 7 t M d p z k z u p u t u u 7 y y 7 e e nX$X&XVX5 7 7 5 5 5 5 % @X+X+X@ e e y e e 7 e 7 e e e e e 7 - 5 > > > e e y u d b     - e xX",
"X.[ [ T z [ k b ! X.[ B p 7 u M b p b z d z p z p p p p t p y 7 5 - * %X1XJX+ e e y e 7 5 3 -X@X$X= e y e e e e e e 5 7 e e 7 > - 5 > - > > e e e u b   o = vXhX",
"[ [ [ m z k ! y m %.[ z y B B M M z p z m b z z k t p u t t t u y 7 - 1X$X{.1X= 5 e e y y 1X$X+X,Xy e e e e p t 7 e 5 7 5 7 > - - 7 - > - > e u u p b     fXgXhX",
"| [ ! M M B u m p ! [ u ! G M n z M z z z z k k z p u p y y e y y e e 3 $X{.nX# = 5 5 - > %X&X@X' e e e e e y e 7 e e 7 5 5 - - - 5 - - > > > e u p b [ g.pXdXdX",
"! [ [ M z b B p X.z [ m [ M B M M b b z z d z z z p p p t u y y y e e > |.MXnX.X7 7 5 5 * $X$X&X+ - 7 t y e y e 7 e 7 7 7 7 5 7 - - - - 7 > e e t p d O.e.z.pXdX",
"[ ! M [ z y k y T b b [ b n b b b m m b z z z z p d t t u t y y e 7 7 7 l BX].{.% 7 e 5 3 $X$X&X* 7 e e y e y e 7 e 7 5 7 7 5 > - - - - > > e e y p b O.w.h.z.dX",
"[ [ ! M T u e 5 k ! | m b M b b M M m b t u u t u p u k u u t y e e 5 5 - {.|.MX_ - 5 5 .X+X$X:Xe y e y e y e e 7 e 7 7 5 7 7 - > - - - > - e e u p n +.4.d.l.z.",
"[ [ T B k k p 5 b o T ..] ] ! B M b m m b z b z u t t u z u y y e 7 7 5 * }.}.1X>X@ - - %X$X$X.X5 e t t e e e e e e e - 5 7 7 > > - - - - > e e u d h +.2.e.f.l.",
"] T ! M m b y y b . u | [ ! T M T M b b b b z z p z p p u t e y e e 5 e 5 * {.$X{.4 5 * &X&X$X3 - e e y e e e e y e 7 7 5 - 7 - e > > - - > e u p d A +.<.e.f.j.",
"[ ! ! b b t u e = % . | ! T ! z z b M z M z z z k k p u u t t y y e e 7 7 7 1X[.DX.Xe 4 -X-X=X# 7 7 e e e e e e e e e 7 e 5 5 5 7 5 - - > 7 y u p b A P <.2.d.f.",
"[ ! M m m b y e - * . % ..[ ! ! M M z p p z z k z p u u y y y e e 7 e 7 e 5 + [.VX[.> _ -X=X-X7 e e e e e e e e e e 7 7 7 7 7 7 - 7 5 > > e e u p b f P +.2.6.f.",
"B [ B m m z p e 5 * @ . ! [ [ B B M M M M b k k k p u u t y y e e 7 5 5 - * * '.'.|.3 >X-X=X9X% 7 e e e e e e e y e 7 e e 7 7 e 7 5 7 - 7 e e u p n f L +.2.5.f.",
"[ b b m m k e 5 = @ . . ..[ ! ! B T M b m z z z k u p u t y e e e 7 5 5 - * * 3 +X{.].%X&X&X' @ = 5 e e e e e e e e y e 7 7 7 7 e 7 7 7 e e u p p b f L +.<.4.f."
};
