/* XPM */
static char *e64e07dbee634795c7e74b9e0b5da5c8Uai95BGILEDSiZWR[] = {
/* columns rows colors chars-per-pixel */
"80 80 170 2 ",
"   c None",
".  c #754D2F",
"X  c #764E30",
"o  c #794F30",
"O  c #7D5332",
"+  c #825634",
"@  c #865936",
"#  c #885B37",
"$  c #865B38",
"%  c #8B5D39",
"&  c #8E613B",
"*  c #92643D",
"=  c #96683F",
"-  c #996A3F",
";  c #8C6240",
":  c #8E694A",
">  c #916640",
",  c #966A42",
"<  c #9B6D43",
"1  c #926C4B",
"2  c #996F48",
"3  c #9E7046",
"4  c #9E744A",
"5  c #8C6C51",
"6  c #9B7654",
"7  c #9E7B59",
"8  c #A17246",
"9  c #A4754A",
"0  c #A7794C",
"q  c #AA7B4E",
"w  c #A67C52",
"e  c #AD7E51",
"r  c #A27E5C",
"t  c #B07F52",
"y  c #937F69",
"u  c #AF8052",
"i  c #A5815D",
"p  c #A9835C",
"a  c #B28354",
"s  c #B68857",
"d  c #B68758",
"f  c #B68959",
"g  c #BA8C5B",
"h  c #B88D5C",
"j  c #BB8C5C",
"k  c #BB8D5C",
"l  c #BA8D5C",
"z  c #B88E5C",
"x  c #B98E5D",
"c  c #BB8E5C",
"v  c #BB8E5E",
"b  c #BC8E5D",
"n  c #BC8E5C",
"m  c #BD8E5E",
"M  c #BE8F5F",
"N  c #BA8C5B",
"B  c #BD905E",
"V  c #BC905E",
"C  c #BF905F",
"Z  c #BE915F",
"A  c #9D866C",
"S  c #9F886E",
"D  c #928373",
"F  c #978876",
"G  c #9D8A72",
"H  c #A18364",
"J  c #AA8660",
"K  c #AC8864",
"L  c #A1876A",
"P  c #A4896B",
"I  c #AA8D6E",
"U  c #B28D63",
"Y  c #B98E61",
"T  c #B08E69",
"R  c #B59065",
"E  c #BC9060",
"W  c #BE9160",
"Q  c #BE9260",
"!  c #B69269",
"~  c #BC9469",
"^  c #BE9C6E",
"/  c #A18B71",
"(  c #A28E78",
")  c #AC9273",
"_  c #A79179",
"`  c #BC9E74",
"'  c #BC9F78",
"]  c #C09260",
"[  c #C19563",
"{  c #C29563",
"}  c #C19762",
"|  c #C39663",
" . c #C49763",
".. c #C39764",
"X. c #C29764",
"o. c #C49764",
"O. c #C29562",
"+. c #C39863",
"@. c #C29862",
"#. c #C39864",
"$. c #C59965",
"%. c #C49964",
"&. c #C59A65",
"*. c #C69B65",
"=. c #C59966",
"-. c #C69967",
";. c #C79B67",
":. c #C69A66",
">. c #C79C67",
",. c #C59A65",
"<. c #C89D67",
"1. c #C89D67",
"2. c #C79D68",
"3. c #C59C69",
"4. c #C89D68",
"5. c #C99E69",
"6. c #C99F69",
"7. c #CA9F69",
"8. c #C99E69",
"9. c #C39F71",
"0. c #C7A06B",
"q. c #CAA06A",
"w. c #CBA06A",
"e. c #CBA16B",
"r. c #CDA26B",
"t. c #CBA16C",
"y. c #CCA06C",
"u. c #CDA36C",
"i. c #CDA46D",
"p. c #CEA56D",
"a. c #CDA46E",
"s. c #CFA46E",
"d. c #CDA36C",
"f. c #CFA86F",
"g. c #D0A56E",
"h. c #D1A76F",
"j. c #D1A66F",
"k. c #D1A86F",
"l. c #D1A86F",
"z. c #CCA571",
"x. c #C1A37B",
"c. c #D0A770",
"v. c #D1A771",
"b. c #D3A770",
"n. c #D3A971",
"m. c #D0A872",
"M. c #D3A972",
"N. c #D4A971",
"B. c #D5AA71",
"V. c #D5AA72",
"C. c #D6AA72",
"Z. c #D7AB73",
"A. c #D6AE77",
"S. c #D5AA72",
"D. c #D9AE75",
"F. c #D5AF78",
"G. c #D7B077",
"H. c #DBB077",
"J. c #D7B27A",
"K. c #DBB379",
"L. c #DCB37A",
"P. c #DFB97E",
"I. c #E1B67C",
"U. c #E0B97E",
"Y. c #E2B87E",
"T. c #A69A87",
"R. c #A99C87",
"E. c #A69A88",
"W. c #A99C88",
"Q. c #E0B980",
/* pixels */
"                                                                                                                                                                ",
"                                                                                                                                                                ",
"  C C                          .            ,             ,             Q             k           Q                           o.            ,             =     ",
"  n n           & +           { f           , =           =           { k           g g           C k           % O           ..h         0 , *           *     ",
"  n s           , $         $.{ a         q < <         , * 9         { f t.        n g a         k d           * +         $.{ f         q < <         , * 9   ",
"a k a {       q < % ,       $.{ a S.      q < 8 a       * * 9       +.$.f u.        C d a       d g a {       q , % <       <.{ f         e < 8         * * 8   ",
"d k a n       a < % <     { w.{ a c.    q u 3 8 a     % % * 8 <     r.$.a w.U.    g n f a       d g a C       a < % 8     ..w.{ h c.    q u < 8 f     & & = 3 < ",
"f k a g s.  a a < % 3 s   #.g...a s.    a a 3 8 a     % @ , < ,     k.4.a 3.K.    f k f a $.  9 d k a k s.  a a < % 9 g   $.s.o.k s.    a u < 8 s     % @ = < , ",
"g n a g 4.f a a < & 3 d +.w.B.$.a s.c.a a q < 8 a a , # + , < * e $.B.u.d 4.M.k e d g f a { s.q f n a k w.f a a , & 9 d { w.B.$.k u.M.a a q , 8 d a * # + = - * ",
"g C a g >.a a a < * 3 a $.g.B.4.d s.u.d d 9 , 8 u e , # + , , & q 4.B.g.f 4.r.u q d g f a ] M.a g C a g w.f a u , & 9 a +.g.B.>.k u.s.g d 9 * 8 a q * # + = = # ",
"g C a g w.f a a < * 3 a $.g.g.4.f u.4.f d 8 = 8 e q , % @ < - # 9 w.g.g.g 4.r.u 0 d n g a Q S.a g C a g s.k a e , * 9 a { c.M.4.k w.u.g d 3 * 9 a 0 * % @ , * @ ",
"g Q a d s.f a u < = 3 a $.g.u.w.f r.4.f a 3 = 9 q q , % & < = @ 8 4.u.s.k 4.w.a 0 d Q g u { J.a g C a f S.C a q , * 9 a { g.g.w.k w.u.g a < * 9 a 0 * % & < * + ",
"g Q d f M.k a e < , 3 a %.s.g.w.k w.4.f d 9 , 9 q 0 , % & < * @ 3 4.g.g.Q w.4.a 0 d ] g e ] J.a g Q d g G.Q a q , , 9 a { g.g.w.C w.u.g a 9 , 9 u 9 * % * < * + ",
"d Q g g S.k a e < < 8 a %.s.B.r.C w.w.g d q 3 9 q 0 , % * < % @ 3 4.M.M.$.w.4.a q f { g 0 ] J.a f ] f g K.] a q , , 9 u { g.B.r.] 4.s.g d q < 9 u 9 * % * < % + ",
"d Q g g S.k a u 8 < 8 a %.s.B.s.{ w.r.g d e 8 9 q 0 , % * < % @ 3 4.B.M.$.r.w.a q f { f 8 ] J.a f ] d g K.Q d e < < 9 u { g.B.u.{ 4.s.g d q < 9 u 9 * & * < % + ",
"d Q f f M.k a a 9 < 9 a %.s.B.s.{ w.s.g g q 3 9 e 0 , & = < % @ 3 4.B.M.>.u.w.a q g { d < ] J.a f ] a f S.Q d a 3 < 0 u { g.B.s.o.4.c.k g q < 9 a 9 * & = < # + ",
"d Q d d M.k a d 0 8 9 a %.s.c.s.{ 4.s.g g e 8 0 e 0 , & - < % @ 3 4.B.g.>.r.w.d q g { a < { K.a g C a f S.Q a a 9 3 q a { g.B.s.o.$.M.n g q < 0 a 9 * * - < # @ ",
"d Q d f M.k a d q 9 0 a %.s.g.u.o.>.s.g g e 8 0 a q , & - < % @ 8 4.c.u.$.w.w.d q g ..f < { K.a f C a f S.C a a 9 8 q a { g.c.s.o.$.M.n g q 3 0 a 0 * * , , % @ ",
"d C g g M.k e d e 0 q a %.s.g.u.$.$.s.g f q 9 q a q , & , 3 % @ 8 4.g.u.4.4.w.f q g ..f 9 ..K.a d Q f g S.C a a q 9 q a { g.g.s.$.$.S.n g q 8 q a 0 * * , < % @ ",
"d Q C g M.f e d a u q a %.g.u.z.w.>.k.g d 0 0 e a e , & < 0 * @ 8 4.g.s.w.4.u.f q g ..Y q #.K.a d Q C g S.n a d e e q a { g.u.z.r.$.M.k g 0 8 q a q * & < 3 * @ ",
"d ! U f M.f e a J J q a $.g.t.x.3.4.M.f d 9 7 p a e , % 2 H * @ 8 w.r.9.^ 3.s.k q f ~ T e ..K.a d ! R g S.k t a p p q d { g.u.x.0.4.Z.g d w 6 w a q * & 2 7 * @ ",
"a _ L d M.d q a P S q d %.s.5.R.R t.M.a d 8 y H a e , % 1 F * @ 3 w.;.) / ^ k.k q d ) G e { K.a a / P f S.g e a L A q d { g.z.W.~ u.S.f d r y r a q * % 1 F & @ ",
"a ( A d M.d q a L S q d %.u.3.T.U s.M.a d 9 y H a e , # : D * @ 3 w. .) G ^ k.h 0 d I G e { J.a a A L f H.f q a A A q d { s.5.E.R s.S.a d r y i a q * % : D & @ ",
"a K U f S.d q a p p e d %.u.$.' =.s.M.a a 0 7 i a e , # & 5 & @ 3 w.] ^ ` t.s.f q a U J e { J.a a J U h K.f q e r p e d { u.3.' =.s.Z.a d w 7 w a q * % ; 5 % @ ",
"a a n g S.f q u e a u d %.u.$.u.s.s.k.a a q q e a e , % % % % @ 3 w.C w.s.s.s.f q d d a q ] J.a a d k g K.k q e q a u d { r.4.s.u.s.Z.a d 0 0 q a q & % % % % @ ",
"a a d d S.f q e q a u a %.u.4.s.s.w.M.a a e e a a e , % % # % @ 3 w.{ r.k.s.s.h q a d e 9 { J.a a d a d J.k q q q a a a { s.r.d.s.w.Z.a a q q a a q * % % # # @ ",
"a a e a S.f q q q d u a %.g.g.s.s.4.M.a a u a a a q , % % # # + 3 w.$.s.g.u.g.k q a d q < { J.a a d q d K.k q q q d u a { g.c.s.k.4.S.a a e a a a 0 * % % # # + ",
"a a e a M.f q e q a e a %.g.g.s.f.s.S.u a u u a a q , % % % @ + 3 w.4.g.g.s.M.k q a a q < { J.a a a e a H.f q q 0 a e a { g.B.s.M.s.S.a a u u a a 0 * % % % @ + ",
"a d a a s.a q e q a e a %.g.g.s.M.M.Z.a a a e u a q , % & % + @ 3 w.r.g.g.M.Z.k q a a 0 3 ] K.a a a a a B.f q q q a e a { g.B.s.M.M.H.a a a e u a q * % & % @ + ",
"a a a e 4.a q a e e q a $.c.g.g.S.S.H.a a a u q u e , % & & @ % 9 w.r.g.B.S.D.C q a a 0 8 C F.a a a a e s.s q e q e e a { c.B.g.S.Z.K.a a a e q a q * % & & @ @ ",
"d a a e %.u q a a q q d $.c.g.M.H.B.K.a a d a 0 e u , % % & % % 0 u.4.M.D.D.H.Q q a a q 9 g S.a d a e q 3.a q a e e e d { M.b.M.H.B.L.a a d u 0 e q * % % & % % ",
"d a e e ] e q d a q q s $.M.g.Z.H.4.H.a a d u 9 q u , % % % % % q s.4.B.D.Z.D.C 0 a a q 0 f M.a d a e e ..u q a e q e f { B.g.B.H.$.K.a a d e 9 q e * % % % % % ",
"d a q u n q q d a q q f $.B.g.D.D.f S.a a a e 9 q u , % % % @ % 0 s.4.B.D.s.M.V 0 a a q q f z.a a a q u ] e q a e q e f #.B.g.D.D.f D.d a a q 8 q e * % % % % % ",
"d a q u g q q d a q q d $.B.g.D.D.u B.a a a q 8 q u , % % % + % 9 s.;.c.Z.w.f.k 0 a a q q d t.a a u q u n q q d u q q f $.S.c.H.D.w S.d a a q 8 q e * % % % # % ",
"d a q e g 0 q d a 9 9 d $.D.g.D.B.0 M.a a a q 8 q u , @ & * O % 8 s. .u.B.4.s.k 0 a t q e a 4.a a e q e g q q d a 9 9 d $.D.b.H.D.4 Z.d a u q 3 0 e & @ & * @ % ",
"d e q q d 0 q d a 8 < a $.S.u.Z.B.4 M.a e a q 8 9 e > O & * O % 3 s.{ r.B.3.s.k 0 a t q e a 3.a a q q e f q q d a 8 8 a $.D.c.D.B.2 M.d u u q 3 9 q % O & * + % ",
"d q q q a 0 q d a < * a $.B.u.B.c.4 M.a q a e 8 9 q & . & * O % < s. .4.g.4.M.k 9 a e q e a 3.a a q q q d q q d a 3 , a $.B.c.S.B.2 M.d e a u 3 8 q % . & * O % ",
"a q q 9 a 0 q d a < & a $.B.g.M.g.w M.d q a a 8 8 q & . & * O % < s.;.r.g.4.B.n 9 a u q q a 3.d a q q q a q q d a < * a $.B.b.B.c.9 M.f e a a 3 8 q $ . & % O % ",
"a q q 9 e q q d a , % a $.D.c.B.s.d M.g q a a 8 3 q & . & * O % < s.u.s.u.u.S.Q 9 a a q q a 3.d a q q 0 a e q a a < & a $.S.B.B.g.a M.g e a a 8 3 0 $ . & % O % ",
"a q q 8 e q q a a , % a $.D.B.B.g.{ M.g e a a 8 3 q & o & * O # < g.B.g.g.c.D.Q 0 a a q q a 3.d a q q 0 a e q a a , % u $.D.B.B.c.Q B.k a a a 8 8 9 $ . & & O % ",
"a q a 9 e e q a a , % a $.D.B.M.B.u.M.g e a a 9 8 0 & O & * O # < g.B.g.B.S.D.n 0 a a q q a 3.d a q e 0 a t e a a < & u $.D.Z.B.B.w.B.n a u a 9 8 9 $ X & * O % ",
"a q a 8 e e e a a < & a ;.K.B.g.B.B.B.g a u a 9 8 0 & O & * O @ < c.D.g.B.H.D.k 0 a a q q a $.d a q a 9 a a e a a < * u $.H.Z.M.B.M.S.n a u a 9 9 9 $ o & * O # ",
"a e a 8 e e e a a 8 , u <.K.D.s.c.Z.Z.k a u a 9 8 q > O % * O @ < c.D.g.D.D.B.g 0 a a q q a $.d a q a 9 a a e a a 8 , u $.K.D.s.g.B.H.n a u a 9 8 9 % O % * O @ ",
"a e a < e e e a a 9 < u <.K.D.u.g.Z.D.g a a u 9 8 q , + % * O # < M.D.g.D.D.B.f 0 a a q q a $.d a q a 9 u a e a a 0 8 u $.K.D.u.u.Z.K.n a u e 9 9 0 & O % * O # ",
"a q a < e q q a a q 0 a <.K.D.u.c.D.K.g a a e 9 9 q , + @ % O % < M.D.g.D.B.M.f 9 a a q q a $.u d q a 8 u e e a a q q u $.K.D.u.u.D.I.k a a q 9 q 0 & O @ % O % ",
"d q u < e q q a a e q a <.K.D.s.B.B.K.f a a e q q q , @ + @ O % 3 M.D.g.D.B.c.f 9 a a q q u $.q d q a 3 u q e a a e q a $.K.D.s.c.B.I.g a a q q q q * + @ # O % ",
"d q q < e q q d a q q d 4.K.Z.s.D.u.K.f a a e q e e , @ + @ O % 3 M.D.g.H.g.c.k 9 d a q q a $.q d q q < a q e a a q q d $.K.D.s.D.u.K.g a a e q a q * @ @ @ O % ",
"f q 0 < a q e d u q q s 4.K.B.s.K.1.D.f a a u q a u , # @ + + # 3 M.D.g.K.g.b.k 9 d a q q a $.q f q 0 < a q e a u q q f ;.K.D.s.K.4.K.f a a e q d e * # @ @ + # ",
"g u q < a e e d a q q g w.K.B.s.L.4.H.f a d a e a a , % @ @ # # 3 M.D.c.L.B.B.k 0 d a q q d $.q f u q 8 a e e a a q e g <.K.B.s.K.4.K.g a a t e d e * # % @ % # ",
"g a q 8 a e e a a q q g w.L.B.s.I.g.K.g a d a e d a , % @ # * # 3 B.D.c.L.H.D.k 0 d a q q d $.q g a q 8 a e e a a e e g <.I.B.s.K.r.L.g a d a u d u * % % # * # ",
"g a q 9 a e e a a q q k r.I.D.s.L.B.L.g a a a e d a , % @ % * # 3 B.D.c.L.L.K.n 0 d a q q d $.q g a q 0 d a e a a q e k 4.I.D.s.K.B.I.k a d a e f a * % # % * # ",
"g a q q d e e a a 9 q C s.I.D.s.L.K.I.n a a a q d f , # @ % * % < B.D.g.L.P.L.n 9 d a q q a $.q g u q q d a e a a q q C 4.I.D.s.K.K.U.n a a a e f d * % @ % * % ",
"g e q e d e e a a 9 0 ] s.I.D.s.L.K.K.n a a a q d f , % @ % % % < D.D.s.P.P.K.k 9 d a q q a $.q g q q e d a e a a 9 q ] 4.I.D.s.K.K.L.n a a a q g f * % @ # % % ",
"g q e t d e e a a 8 9 { s.I.D.s.U.K.D.k u a u 9 f k , % + @ @ % < D.K.s.U.L.H.k 0 d a e e a $.q g 0 q t d a e a a 9 0 { 4.I.Z.s.L.K.K.n a a a q k k * % @ @ # % ",
"g 0 a a d e e a a 9 9 { s.K.S.s.U.K.K.n a a a q f V , % + @ + % < B.D.s.U.L.D.k 0 d a e a a $.e g 9 a a d a e a a 9 q { 4.K.B.s.L.K.K.n a a a q Q V * % @ + @ % ",
"g 0 a a d e e a d q 0 { s.K.B.g.U.K.I.n a a a e k Q , % + + O % < c.D.s.Q.L.D.k 0 d a a a a $.e g 9 a a d a e a d q e { 4.K.B.g.L.H.I.n a a a u { Q * % @ + + % ",
"g 8 u u d e e a d e q { s.H.B.g.U.H.I.n a a f a k Q , % + + + % < s.D.s.U.L.H.k 0 d a a a a $.u g 8 u a d a e a d u e { 4.K.B.g.L.H.U.n a a f a { Q * % @ + + % ",
"g < q e d e e d g a e { s.D.B.g.L.H.I.n a a k d n C , # + + @ # < s.Z.s.U.L.H.k 0 d a u a a $.a g < q e d a e a g a u { 4.H.B.g.K.D.U.n a a n f { C * % @ + @ # ",
"g , 9 e d e e d n d e { s.D.B.g.L.H.I.k a d C d k C , # + + # # < u.B.s.L.L.K.k 0 d a u e d $.a g , 0 e f a e d n d u { 4.H.B.g.K.D.U.n a d ] g { C * % @ + # # ",
"g , 9 e d e e f ] d e ..s.H.Z.g.L.D.I.n u g { d k Q , % @ + & @ < u.D.s.L.L.K.k 0 a e e q a $.a g , 9 e f a e f { f e $.4.H.S.g.H.D.U.n a g { f Q C * % @ @ % # ",
"g , 9 e d e e g o.f e $.s.H.D.g.K.D.I.n u k ..d k Q , % @ @ * @ < s.D.s.K.L.K.k 0 a e e q d $.d g < 9 e f a e g o.f u $.4.H.D.g.D.D.U.n a k { f Q C * % @ @ * # ",
"g 3 8 e d e e g o.f u $.s.H.S.g.D.D.I.n a n { d C Q , % @ @ * @ < s.D.g.D.L.K.k q a u e q a $.d f 9 8 e g a e g o.f a >.4.H.S.g.S.D.U.n a n { f { C & % @ # * # ",
"g 9 3 e d e e k o.d u $.s.H.Z.g.D.D.I.n a n ] d C Q , % @ @ * @ < s.D.g.D.L.L.n q a a q 0 a $.d f 0 3 q g a e k { d a >.4.H.Z.g.Z.D.U.n a n Q d { V & % @ % * # ",
"g 8 < e d e e k o.a q $.s.H.D.s.D.H.I.n a n ] a C C , % @ % * @ < s.D.s.D.P.I.Q q a a q 0 a $.d d 9 < e g a e k { a u $.4.H.D.s.D.D.U.n a n C d { k & % @ % * # ",
"g 8 < e d e e k o.u 0 ..s.H.D.s.H.H.I.n a n Q a k V , % @ % * @ < s.D.g.S.I.U.Q q d a q 9 a $.d d 9 < e f a e k { a e $.4.H.D.s.K.D.U.n a C C a { k & $ @ & * # ",
"f 8 < e d e e g o.u 8 { s.H.D.s.K.K.I.n u n ] u f k , # @ & * @ < g.D.g.Z.L.U.] e d a 0 9 a $.d d 9 < e f a e k { u 0 { 4.H.D.s.L.D.U.n a C C a Q k & @ @ & * # ",
"d 9 , q d e e g  .u 3 ] s.K.D.s.K.H.I.n u n ] u f k , @ # & * @ < g.D.k.B.L.U.] e d u 0 9 a $.d d 9 , q f a e g { u 9 { <.H.D.s.L.D.U.C a n C a C g & @ @ * * # ",
"a 9 - q a e e g { a 9 ] s.K.D.s.B.D.I.n a n ] u f k > @ % * * @ < c.D.g.s.D.U.{ e d e 9 8 a >.d a 9 , e f a e g { a 0 ] 4.K.D.s.S.D.U.n a n C a C k % + % * = # ",
"a 9 = q d e e g { a q Q s.K.D.u.s.S.I.n a n C a f k > + % * * @ < M.D.g.w.S.I.] e d q 9 8 a >.d a 9 = e f a e g { a e C 4.K.D.u.M.B.U.n a n n a Q k % + % * = # ",
"a 3 = q d e e g ] d e Q s.K.D.s.s.D.I.g a n n a f f * O # * - # < B.D.g.u.D.I.] e d q 9 8 a $.d a 9 = e f u e g ] a e C <.H.D.s.M.S.U.k a n n a C f % O % * - # ",
"a < * q d q e g C d u Q s.H.D.s.g.D.I.g a n n a f f * O @ * = # < B.H.g.c.H.I.Q e d q 9 8 a $.d a 3 = e g e e g n d u C <.D.D.s.M.D.U.g a n g a k f % O # * - % ",
"a , * q d q e g g d a C r.H.D.s.M.D.I.g d n g a g d > O @ * - # < B.K.g.B.K.I.Q e d q 9 8 a $.d a < * e g e a g g d a C <.D.D.s.M.D.U.g d n g a k a % O # * - % ",
"f < * q f q a g g d a C w.K.D.s.M.D.I.g d n g d g a > O @ * - # < B.K.g.B.K.I.Q e d q 8 8 a $.d f < * e g e a g g a a n >.H.D.s.M.D.U.g f n g d n a % O # - - % ",
"f 9 * q f q a k g d d C w.H.D.s.B.H.I.d d n g d g a > O @ , = # < B.H.g.B.K.I.Q e d q 8 8 a $.d f 9 * q g q a n g d d n >.H.D.s.B.D.U.g d n f d n u % O % , - % ",
"d e * q f q a n k d d C w.H.D.s.Z.H.I.d d n g d g a > O % < * # < B.D.g.B.K.I.Q e d q 8 8 a $.d d e * q g q a n k d d n >.H.D.s.S.D.U.s d n f d n u % O % < = % ",
"a a * q d 0 a C n d d ] 4.D.D.s.S.D.I.a a n g d g a > + % 8 * % < B.H.g.B.K.I.Q e d q 8 3 a $.d d a * q g q a C n d d C >.D.D.s.G.D.U.d d n g d n u % + & 8 = % ",
"a a * 0 d 0 a ] C d a { 4.D.D.s.S.D.I.a d C n d g a > + & 0 * * < B.K.M.B.K.I.] e d q 9 < u $.d a d * 9 f q a C C d d C $.D.D.s.K.D.U.s d C g d g u % + * 9 * * ",
"a a * 9 d q a C C a u { 4.D.D.s.S.D.I.s d C n a d a > + & q * * < B.K.M.B.K.I.] e d q 9 < u >.d a a * 9 f q a C C a a Q >.D.D.s.H.D.U.g f C k d g u & + * 9 * * ",
"a u & 9 d q a C n u q { w.D.H.s.S.H.I.g g C n u a a , + & 0 * * < c.H.g.Z.L.I.{ e d q 8 , a $.d a u & 9 d e d C n u q C >.H.D.s.S.D.U.n n C k a f a & + & 9 * * ",
"a e & 8 d e a C n e 0 { w.D.K.s.S.K.I.k k n n u a d , + % 0 & * 3 c.H.g.Z.L.I.Q e d q 3 , a $.d a u & 9 d e d C n u 0 C <.H.H.s.S.D.U.C n n k a d a & + & 9 * * "
};
