/* XPM */
static char *_4197755e1474652c347254ddb471228BB6nXiiJ7RqmidRz[] = {
/* columns rows colors chars-per-pixel */
"80 80 169 2 ",
"   c None",
".  c #6F482C",
"X  c #734B2E",
"o  c #774E31",
"O  c #784F30",
"+  c #7D5332",
"@  c #825634",
"#  c #855936",
"$  c #885B37",
"%  c #875B38",
"&  c #8B5E39",
"*  c #8E603B",
"=  c #93643D",
"-  c #97683E",
";  c #986A3F",
":  c #8C694B",
">  c #936740",
",  c #966941",
"<  c #9B6D43",
"1  c #976E49",
"2  c #986F49",
"3  c #9E7146",
"4  c #9D7249",
"5  c #977A5E",
"6  c #9E7C5B",
"7  c #A17246",
"8  c #A3754A",
"9  c #A6794D",
"0  c #AA7C4E",
"q  c #A57950",
"w  c #AD7E51",
"e  c #A57F58",
"r  c #AF8052",
"t  c #A5815C",
"y  c #AC845B",
"u  c #B38354",
"i  c #B68758",
"p  c #B78859",
"a  c #BA8B5B",
"s  c #B98A5A",
"d  c #B98D5B",
"f  c #BA8C5B",
"g  c #BB8C5B",
"h  c #B88D5C",
"j  c #BB8C5C",
"k  c #BB8D5C",
"l  c #B88E5C",
"z  c #BB8F5F",
"x  c #BC8D5D",
"c  c #BC8E5D",
"v  c #BD8F5D",
"b  c #BC8F5D",
"n  c #BD8F5E",
"m  c #BE8F5E",
"M  c #BA8C5B",
"N  c #BC905D",
"B  c #BD905E",
"V  c #BD915F",
"C  c #BC905E",
"Z  c #BE905F",
"A  c #BF915E",
"S  c #BD935E",
"D  c #BE915F",
"F  c #95826C",
"G  c #9B856E",
"H  c #8F8171",
"J  c #908273",
"K  c #978977",
"L  c #9B8A75",
"P  c #968979",
"I  c #9A8D7A",
"U  c #A28464",
"Y  c #AE8962",
"T  c #A48B6C",
"R  c #A98A69",
"E  c #B58E64",
"W  c #BF9361",
"Q  c #BF9460",
"!  c #BE9261",
"~  c #B6926B",
"^  c #BD996C",
"/  c #A28D78",
"(  c #A79277",
")  c #A5917B",
"_  c #B49470",
"`  c #C09160",
"'  c #C19261",
"]  c #C09460",
"[  c #C19462",
"{  c #C19563",
"}  c #C29563",
"|  c #C29462",
" . c #C39663",
".. c #C49763",
"X. c #C39764",
"o. c #C39664",
"O. c #C49764",
"+. c #C19461",
"@. c #C59865",
"#. c #C49965",
"$. c #C69B65",
"%. c #C59866",
"&. c #C69966",
"*. c #C59A66",
"=. c #C69B66",
"-. c #C79B67",
";. c #C79C67",
":. c #C59A66",
">. c #C89C67",
",. c #C69B68",
"<. c #C69D69",
"1. c #C89D68",
"2. c #C89C68",
"3. c #C89E68",
"4. c #C99E69",
"5. c #C99E69",
"6. c #C19F71",
"7. c #CAA069",
"8. c #CBA16B",
"9. c #CCA26B",
"0. c #CDA26B",
"q. c #CBA06C",
"w. c #CDA16C",
"e. c #CDA36C",
"r. c #CDA46D",
"t. c #CFA56D",
"y. c #CEA56D",
"u. c #CEA56E",
"i. c #CFA46E",
"p. c #CFA66F",
"a. c #CDA36D",
"s. c #CFA86F",
"d. c #D1A76F",
"f. c #D1A66F",
"g. c #D0A86F",
"h. c #C1A174",
"j. c #CDA671",
"k. c #CFA871",
"l. c #C0A37B",
"z. c #D2A770",
"x. c #D3A770",
"c. c #D1A871",
"v. c #D3A971",
"b. c #D1A872",
"n. c #D5A871",
"m. c #D4AA71",
"M. c #D4AA72",
"N. c #D6AA72",
"B. c #D6AA73",
"V. c #D6AB73",
"C. c #D7AB73",
"Z. c #D3AC75",
"A. c #D5AC75",
"S. c #D6AD74",
"D. c #D5AB73",
"F. c #D9AE75",
"G. c #D7B077",
"H. c #DBB077",
"J. c #D7B179",
"K. c #D8B179",
"L. c #DBB37A",
"P. c #DEB57C",
"I. c #DDB37A",
"U. c #DEB87E",
"Y. c #E1B67C",
"T. c #E1B97E",
"R. c #A89B87",
"E. c #A89C89",
"W. c #E4BC82",
/* pixels */
"                                                                                                                                                                ",
"                                                                                                                                                                ",
"                                                                                                                                                                ",
"                                                                                                                                                                ",
"        B B           +           ..            =           ,           ] j           g           B             o           O.            =           -         ",
"        v g           @           ] p         8 =           -           ] j           g           B a         8 +           o.h         9 =           =         ",
"      r v i         9 % =       %.] u         0 - w       , = 8         ] p P.      ' a u       i j u         9 @ ,       %.o.p         0 = u       , = 7       ",
"      u j u %.      0 & =       3.] u K.    9 0 - 0       = = 7       %.o.u K.      ' a w       i g u <.      0 % ,       3.o.h       9 w - u       - = 7       ",
"      i a u B     u 0 & - u   W a.o.u b.    u w ; 0 B   * $ - 3 <     t.%.u A.    i v a u %.    i g u W     u w % < p   ] 0.O.h b.    u w - r     * & - < <     ",
"    8 p j u v b.  i 0 * , u   %.z.%.u t.    u 0 , 0 g   * @ - < -   ] b.<.r M.A.  i a a u ]   9 i j u B     i w & < i   %.d.%.j t.  8 i 0 - 0 B   * @ - < -     ",
"    w a v u v 3.0 i 0 * , r Q 0.M.;.i t.q.u i 8 , 0 u 3 * + - < = w 8.M.8.u M.%.8 i p a u v b.r a v u B 8.w i 0 & < r B 0.M.%.j t.t.u i 3 - 0 i , * + - , * r   ",
"    r a B u v 3.w i 0 = , 0 ] t.M.3.p t.3.u u < , 0 u 3 * + - , & 0 0.M.0.u b.] 8 u a g u j Z.u a B u v t.w i 8 * < w B d.M.3.j t.a.i u , - 0 u , & @ - - $ 0   ",
"    r a B u g t.w i 9 - , 0 ] t.f.8.p t.<.u u , , 0 w 3 * % < , $ 8 0.f.a.p d.] 9 u v v r j G.u a B u j A.r i 8 * < 0 B d.z.8.j a.8.i u > ; 0 r , & $ , , % 9   ",
"    r a W i a M.w i 8 , < 0 ] t.a.8.p a.;.i u , < 0 0 3 * & < - % 3 8.a.t.j d.] 9 u B B w j L.u a B u j K.u i 3 = 3 0 B t.d.0.j 8.8.i u , , 0 w , & * < = % 8   ",
"    u i ' i j G.w i 8 < < 0 ] t.z.0.B 0.3.i i 8 < 0 0 3 * * < * % 3 8.d.d.' d.] 9 u B W 0 j L.u p ' i v P.u i < - 7 0 B t.M.0.W 8.0.i i 8 < 0 0 , * * < * % 8   ",
"    u i ' p j G.w p 8 < 3 0 ' a.M.t.' 0.3.i i 8 3 0 0 3 * * < & @ 3 8.M.b.o.t.] 9 u ' W 8 a L.u p ' i B U.u i 3 , 8 0 B t.M.a.] 8.a.i i 8 < 0 0 , & = < & % 8   ",
"    u i ' i g A.w p 0 < 7 0 ' a.M.t.] 8.0.i a 8 3 0 0 3 * = < & % 3 8.M.d.%.t.o.9 u ' B < a L.u a ' u v L.u a 9 , 8 0 B t.M.t.] 3.d.i p 8 < 0 0 , & - < & % 8   ",
"    u i W i a A.w p w 7 8 0 ' a.x.t.] 3.a.i a 8 7 0 0 3 * - < & % 8 8.M.t.%.t.%.9 u ] B , g L.u a B u j K.u a 0 < 9 0 B t.M.t.O.3.b.i a 7 3 w w , & - < & % 8   ",
"    u i W i g D.w i u 8 8 0 ] a.d.a...3.t.i a 8 7 w w 3 * - < & % 8 8.z.0.%.a.%.9 u ] W < j L.u p B u j H.u p w < 0 0 B a.z.t.O.%.b.p a 8 7 r r , & ; < & % 8   ",
"    u i W p g D.w i u 9 9 w ] a.d.a.%.;.t.i p 8 8 w u 3 * - 3 * % 8 8.d.0.3.8.;.9 u ] ] 3 v L.u p W i j G.u i r 8 0 r B t.d.t.%.%.b.i a 8 7 r u , & ; < * $ 8   ",
"    u i ' v g Z.0 i u y 0 w ] t.a.j.8.;.d.u i 8 w w u 3 * - q = % 8 8.d.t.3.3.8.9 u ' o.0 B L.u i Q v j G.w i u w 0 u B d.a.j.0.;.b.i p 3 8 0 u , & - 3 = $ 8   ",
"    u i ~ E a D.0 i u R 0 r ] d.a.l.<.3.g.u i 3 U w u 3 & = U - % 8 0.5.6.^ 3.0.9 u W _ w W L.u i ~ E j K.0 i r U w u B d.a.l.<.3.Z.i p 4 6 w u , & - 6 = $ 8   ",
"    u u ) U a A.8 i r I w u ] t.5.E.E t.b.w i 1 P w u 3 & * P > % 7 8.%.( T t.t.9 u E I w v L.u u L T j K.0 i y I w u B t.a.E.~ t.Z.u p 5 F w u , & > P = $ 8   ",
"    u u / U a A.8 u r I w u ] a.<.R.E t.g.0 i 2 K w u 3 & * H = % 3 8.W ( T t.0.9 u E I w v L.u u G T j L.9 i y K w u B a.5.R.~ g.b.w i 5 F w i , & * J * % 8   ",
"    u u Y E g K.8 u w y r u ] a.%.h.<.t.t.0 i 3 t w i 3 & & : * % 3 0.B 6.<.t.8.9 u i Y w j L.u u y E v P.9 u q t w u B a.3.h.<.s.b.0 i 4 e 0 i , & & : & % 8   ",
"    u u i v g K.8 u 0 u u u ] a.%.0.t.t.t.0 i 8 w w u 3 & & $ & % 3 a.B d.d.t.8.9 u i i 9 j L.u u i g v U.9 u 8 u r u B a.3.e.a.t.b.0 i 7 0 0 i , & & $ $ % 8   ",
"    u u u u a K.8 u 9 u u w ] t.0.t.t.3.g.0 i 0 u u u 3 & & $ & @ 3 a.] d.d.a.a.9 u i i < j L.u u i r g U.9 u 8 u u r B a.f.t.t.3.D.0 i 0 u u u , & & $ $ % 8   ",
"    u u u w i K.8 u 9 u u 0 ] t.d.t.g.8.b.0 i w i u r 3 & & & $ @ 3 a.%.d.t.t.t.9 u u u , j L.i u u 0 a U.9 u 7 u u 0 B a.z.t.b.8.D.0 i 0 i u u , & & & $ % 8   ",
"    u u u u i A.8 u 0 u r 0 ] t.d.t.b.d.b.0 i w u u r 3 & * & @ @ 3 a.3.b.t.b.t.9 u u w , j L.u u u w p L.9 u 8 u u w B t.M.t.b.d.D.0 i 0 u u u , & * & % @ 8   ",
"    u u i u u z.8 u 0 u w w ] t.d.t.M.D.M.0 i r w w u 3 & * * @ % 8 a.0.b.b.D.b.9 u u 0 < a K.u u u u i A.9 u 9 u w r B d.M.t.M.D.A.0 i w w r u , & * * % % 8   ",
"    u u u u r 3.8 u w r 0 u ] d.d.d.F.A.F.0 i u 0 0 u 3 & & * & & 9 t.3.M.F.F.D.9 u u 0 8 i A.u u u u u t.8 u 0 w 0 u B d.M.d.F.D.H.0 i u 0 0 u , & & = & & 0   ",
"    u i u u u %.8 u u w 0 u ] z.d.M.H.t.H.0 i u 0 8 i 3 & & * & & 0 t.3.M.F.A.A.9 u u 0 8 u b.u i u w r 3.8 u w w 0 i W z.z.M.H.a.I.0 i u 0 8 i , & & * & & 0   ",
"    r i u 0 u W 8 i u w 0 i ] b.f.F.F.W F.0 i u 0 7 i 3 * & & $ & 0 t.3.A.F.t.b.9 u u w 9 u k.u i u 0 u ] 8 u r w 0 i W M.d.F.F.N K.0 i u 0 3 i , & & & & & 0   ",
"    w u u 0 u j 7 i u 0 0 u ] M.f.F.F.r A.0 i r 0 3 i 3 & & & % & 9 d.3.M.M.8.g.9 u u 0 0 u t.u u r 0 u B 8 i u 0 0 i W M.d.H.F.r K.0 i w 0 < i , & & & $ & 0   ",
"    w u u 0 u a 7 u i 0 7 u ] A.f.F.M.9 A.0 u w 0 3 u 3 $ & = @ & 8 d...z.M.;.g.9 u u 0 w r 8.u u w w u j 8 u u 0 8 u W A.z.H.A.4 H.0 i w 9 < u , % & = % * 9   ",
"    w u w 0 w p 7 u i 0 , w ] A.a.A.M.4 A.0 u r 0 < u 3 @ & = + & 3 d.' d.z.;.b.9 u u 0 r w <.u u 0 0 w a 8 u i 0 < r W A.z.F.M.2 F.0 u w 0 < u , + & = @ * 8   ",
"    u u 0 0 0 u 7 r i 0 = 0 ] M.a.M.z.4 A.0 u u 0 < w 3 X & = + & 3 d.' a.d.;.M.8 w u 0 r 0 <.u u 0 0 0 i 8 u i 0 > 0 B M.z.A.z.< F.0 u r 0 , r , X & = + & 8   ",
"    i u 0 0 9 u 8 w i 0 & 0 ] M.f.b.d.9 C.0 w u 0 , 0 3 X & = + & < z.%.a.f.3.M.9 0 u 0 w 0 <.i u 0 0 0 i 8 r i 0 * 0 B M.z.M.z.4 A.w w u w , 0 , . & = + & 3   ",
"    i u 0 0 8 u 8 w i 0 % 0 ] M.z.b.a.i M.u w u w , 0 3 X & = + & < b.0.t.a.t.M.9 0 u 0 0 0 <.i u 0 0 0 i 0 r i 0 % 0 B M.M.M.d.r A.u w u u , 0 > X & = + & 3   ",
"    i u 0 0 8 u 9 w i 0 @ 0 ] F.M.b.d.] M.u w u u , 0 < o & = + $ < b.z.d.f.M.M.9 0 u 0 0 w <.i u 0 0 9 i 0 r i 0 % 0 B F.M.M.z.B M.i r u u , 0 = X & = + & 3   ",
"    i u 0 w 8 u 0 w i 0 % 0 ] F.M.b.M.t.z.i r u u < 0 < O & = + $ < M.M.d.M.F.M.9 w u 0 0 w <.i u 0 0 8 i 0 u i 0 % 0 B F.C.M.M.8.b.i u u u < 0 = X & = + & 3   ",
"    i u 0 u 3 u 0 w i 0 & 0 ] F.F.d.M.M.z.i u u u < 0 3 + & = + % < M.F.d.F.F.d.9 w u 0 0 w %.i u 0 w 8 i w u u 0 & 0 B F.F.b.M.b.M.i u r u < 0 - X & = + & 8   ",
"    i u w u < u 0 u i 0 = 0 ] I.F.t.z.D.M.i u r r < 0 3 + & = + % 3 M.F.d.F.F.a.9 u i 0 0 r %.i u 0 u 8 i w u u 0 , 0 B H.F.t.d.D.F.i u w w < 0 , + & = + $ 8   ",
"    u u w u < u 0 u u w < 0 ] I.F.a.d.A.C.i u r w < 0 3 @ % = + $ 3 M.F.d.F.M.a.8 u i 0 0 w %.i u 0 u 7 i 0 u u w 7 0 B H.F.a.a.A.I.i u w 0 < 0 , + % = + & 8   ",
"    0 u 0 u , u 8 u u w 0 0 ] I.F.t.z.F.F.u u u 0 8 0 3 % @ & + & 3 M.F.d.F.z.a.8 r i 0 0 0 %.r i 0 u < i 0 u u w 0 0 B H.F.t.d.F.I.u u w 0 8 w , @ @ & + & 8   ",
"    0 i 0 w , u 8 u u w w r ..I.F.t.M.x.F.w u u 0 0 r 3 & @ % + & 3 M.F.d.H.a.d.8 r i 0 0 0 %.0 i 0 w < i 9 u u r 0 r ] I.F.t.b.M.P.u i u 0 0 u , % @ $ + & 8   ",
"    0 i 0 0 < i 8 u u 0 0 u ..I.F.t.K.3.F.r i u 0 0 u 8 & @ % + $ 3 M.F.d.I.3.z.8 u i 0 0 w %.0 p 0 0 < i 9 i u w 0 u ] I.F.t.F.5.I.u u u 0 0 i , $ % % + & 8   ",
"    0 p 0 9 < i 8 u u 0 0 u %.I.F.t.P.-.F.r i u 0 0 i 8 & % @ @ $ 3 M.F.d.P.0.M.8 u u 0 0 u %.0 p 0 9 3 i 0 i u w 0 i ] I.F.t.I.%.I.u i u w w p , & $ % @ & 8   ",
"    0 p u 0 3 i 9 u u r 0 i %.I.F.t.P.3.H.u i u u w p 8 & % % & $ 3 A.F.d.U.z.C.8 u i w 0 u %.0 a u 9 8 i 0 u u w 0 i ] I.F.t.I.3.I.u u u r u a , & $ $ & & 8   ",
"    0 a u 9 8 i 0 u u r 0 i ;.I.F.t.P.d.I.u u u u w a 8 & % $ = $ 3 F.F.d.T.F.F.8 u i w 0 u %.0 a u 0 8 i 0 u u w 0 a ..I.F.t.K.d.P.u u u u u g , & & $ = & 8   ",
"    0 a u 0 0 i 0 u u 0 8 a ;.I.F.t.P.F.I.i u u w 0 v 8 & % $ = $ 3 F.F.d.W.P.F.8 u i 0 0 u %.0 a r 0 0 a w u u w 9 a ..I.F.t.K.F.Y.i u i u w B < & % $ = & 8   ",
"    0 a 0 0 w i 0 u u 0 7 a 8.P.F.t.P.P.I.i u u w 0 W 8 & @ & & & 3 F.F.t.W.P.F.8 u i 0 0 r %.0 a 0 0 r a w u u 0 8 j %.I.F.t.K.P.P.i u i u 0 ] < & % $ & & 8   ",
"    0 a 0 w u i 0 u u 0 < v 8.P.F.t.T.I.F.i r u 0 9 ] 8 & @ $ $ & 3 H.F.t.W.K.M.8 u i w w w %.0 a 9 0 u a w u u 0 3 B %.I.F.t.P.I.F.i u u w 0 %.< & % % & & 8   ",
"    0 a 9 u u i 0 u u 0 < v 8.I.F.t.T.I.F.i u u 0 0 %.8 * @ % @ & 3 F.F.t.W.H.M.8 u i w u w %.w a 8 u u a w u u 0 3 W %.I.F.t.P.I.H.i u u w w 3.< & % % % * 8   ",
"    0 a 9 u u i 0 u u u 3 B 8.I.C.t.T.H.I.i u u u w ;.8 * @ @ + & 3 M.F.t.W.A.M.8 u i r u w %.w a 8 u u a w u u u 8 ] %.I.C.d.Y.H.P.i u u u u a.< & % @ @ * 8   ",
"    0 a 8 u r i 0 u i i 8 B 8.H.M.d.T.H.P.i u u i w <.8 * @ @ + & 3 b.M.t.W.A.C.8 u i u u w %.r a 8 u u a w u u i 9 ] %.H.C.d.P.H.Y.i u u p u a.< & % @ @ & 8   ",
"    w p < 0 w i 0 u i a 9 B 8.F.M.d.P.H.P.i u i v u ;.8 * @ @ @ $ 3 d.M.t.W.H.F.8 u i r u u %.u p < w w a w u i j 0 ] %.H.M.d.I.F.Y.i u i v i a.< & % @ @ & 8   ",
"    w p > 0 w p 0 u a v 9 v 8.F.M.t.P.H.P.i u a ' r ;.8 * % @ $ $ 3 d.M.t.W.K.M.8 u u r w u %.u p , 0 w a w u a B 0 ] %.F.M.d.K.F.Y.i u a ] u 8.< & % @ $ & 8   ",
"    u p - 9 w p 0 u v ' 9 B 8.F.F.t.P.F.P.i u v ] w ;.8 * % @ & % 3 d.A.t.T.P.M.8 u w r 0 u %.u p , 9 w a w u v ' 9 ] %.F.F.d.H.F.Y.i u v ] u 8.< & $ @ & & 8   ",
"    u p , 8 r i 0 u W ] 9 ] 8.F.F.d.K.F.P.i u ' ] w 3.8 * % @ = % 3 d.F.t.P.P.M.8 u w u 0 u %.i p < 8 u a w u ' ] 9 %.%.H.F.d.F.F.Y.i u ' ] u 8.< & $ @ = & 8   ",
"    i p 3 7 u i 0 u ] ] 0 ] 8.H.F.d.F.F.P.i u ' W r 8.8 & % @ - % 3 d.A.t.I.P.M.9 u r u 0 r %.i p 8 7 u a w u ] ' 0 %.%.H.F.d.A.F.Y.i u ' ' i a.< & % % = $ 8   ",
"    i p 8 7 u i 0 u ] ' 9 ] 8.H.F.d.F.H.P.i u ] v u 8.4 & % % - % 3 b.A.t.H.P.A.9 u u r 9 r %.i i 8 7 u a w u ] B 0 %.%.H.F.d.A.F.Y.i u ' v i a., & % $ - $ 8   ",
"    i p 7 3 u i 0 u ] W 8 ' 8.H.F.t.F.H.P.i u ] j r 3.4 * % $ - % 3 b.F.t.H.T.F.9 u u w 8 r %.i i 8 3 u p w u ] v 9 o.%.H.F.t.F.F.Y.i u ] g i 8., & % & - $ 8   ",
"    i p 7 < u i w u ] B < B 8.H.F.t.H.H.P.i u ] j w %.4 & % & - % 3 b.F.t.F.T.H.0 i u 0 8 w %.i i 8 < u p w u ] v 8 ] %.F.F.t.K.F.Y.i u ] a u 3., & % & - & 8   ",
"    i i 7 < u u 0 u ] B , j 8.H.F.t.I.I.P.i u ] j 0 X.3 & % & - % < b.F.d.F.T.I.0 i u 0 7 w %.i i 8 < u i w u ] v 3 B %.F.F.t.P.F.Y.i u ] a r 3., % % & - & 8   ",
"    i i 7 , u u 0 u ] B < g 8.H.F.t.F.H.P.i u ' j 9 ] 3 % % * - % < M.F.d.M.P.I.w i u 0 7 w ;.i u 8 , u i w u ' v 3 v %.F.F.t.K.F.Y.i u ] a r <., % % = - & 3   ",
"    i u 8 ; u u 0 u ' B 8 g 8.I.F.a.b.F.P.i u ' a w ] 3 @ $ * - % < M.F.t.a.I.I.w a r 9 7 w ;.i u 8 ; u i w u ' B 8 v %.F.F.t.A.F.Y.i u ' a u <., @ $ = - & 3   ",
"    i u 8 - u u 0 u ' B 9 g 8.I.F.a.t.F.I.i u W g w ] 3 @ $ = - % < D.F.t.a.K.I.w a w 9 7 w %.i u 8 - u i w u ' v 9 v %.F.F.t.b.F.Y.i i ' a u %., + $ = ; & 8   ",
"    i r < - u i 0 u v v 0 j 8.H.F.t.d.F.I.u i W a w W 3 + % = ; $ 3 F.F.t.z.I.H.q i 0 8 7 w %.i u 3 - u p 0 u v j w v %.F.F.t.b.F.Y.u i B p u X., + % - ; & 8   ",
"    i u , - u i 9 u g g w j 3.F.F.t.b.F.I.u p B p r B 3 + @ = ; $ 3 F.F.t.M.I.H.0 p w 8 7 w %.i u < - u p 0 i v a w v ..F.F.t.b.F.Y.u a B i u ] , + % - ; & 8   ",
"    i i , - u i 9 i a a u g ;.H.F.t.b.H.I.u a v i u v 3 + @ - ; $ 3 F.H.t.A.P.F.0 p w 7 7 w %.p i , - u a 0 a a a u j ..F.F.t.b.F.Y.u a v i i B , + % - , & 8   ",
"    i p 3 - u i 8 a a a u j %.H.F.t.M.H.I.r j v i i j 3 @ @ - ; $ 3 F.F.t.F.P.F.0 i r 7 7 w %.p p 3 - u a 0 a a i u j ] F.F.t.M.F.Y.u a v i a v , @ % ; ; & 8   ",
"    i i 0 = u i 8 j v a u v %.F.F.t.D.H.I.w a v i i j 3 @ % , - % 3 F.F.t.A.P.H.0 a r 8 3 w %.i i 0 - u a 8 j v a i v ] F.F.t.A.F.Y.w a j i a v , @ % , ; & 8   ",
"    i i r = u i 8 j B a u B %.F.F.t.A.H.I.0 a v i i j 3 @ % 3 - & 3 F.F.t.A.P.H.0 p w 8 < w %.i i r = u p 8 g B a u v ] F.F.t.A.F.Y.w a v i a j , @ $ < ; & 8   ",
"    i u u = w i 8 g ' j u B %.F.F.t.A.F.I.0 a W a i j 3 @ % 8 - = 3 F.H.d.D.P.H.0 p w 8 < 0 %.i u u = 0 p 8 a ' a u v ] F.F.t.K.F.Y.w a B i i j , @ & 8 - = 8   ",
"    i u r * 0 i 8 a ' a 0 B %.F.F.t.A.F.I.w a W a u j 3 @ % 9 = = < F.H.d.A.P.I.0 p 0 8 , 0 %.i u u * 0 p 8 a ' a w v ] F.F.t.K.F.Y.u j B a u j , @ & 8 - - 8   ",
"    i u r & 9 i 8 j B a 8 v ;.F.H.t.A.H.I.u v v a 0 j 3 @ % 9 = = 3 M.H.t.F.P.I.0 p w 8 - 0 %.i u r & 0 p 0 v v a 8 v ] F.F.t.A.F.Y.i B v a r j , @ & 8 = = 8   ",
"    i u w * 0 a u B v g 0 B 8.F.I.t.A.I.Y.j ' v j r B w % $ w = = 9 F.H.d.F.P.I.i a r 9 - w 3.p u r * 0 a i W v g 0 B 3.F.I.t.A.H.T.v ' v j u W 8 % & 9 = = w   ",
"    a u r = 0 j <.] B v j ' A.H.I.b.F.K.T.3.] B W W o.Q * * r - , y K.I.b.M.H.Y.*.j u 0 < u a.a u u = 0 B <.o.B B j ] b.I.I.b.F.I.W.3.] B W ' %.! & = w , , h   ",
"    j u r = 0 v k.%.B B ] ] K.H.I.b.F.K.W.z.o.B ] %.%.q.* > u , < h P.I.M.M.A.Y.j.v u w < u j.j u u = 0 ' b.%.B W O.o.K.I.I.b.F.I.W.a.] B ] %.<.<.* > r , < Q   "
};
