/* XPM */
static char *_d5dd3bac78f4fb9f0343c0e7612fac65CcXRTxyDjDOZKmt[] = {
/* columns rows colors chars-per-pixel */
"80 80 241 2 ",
"   c None",
".  c #593B24",
"X  c #334E29",
"o  c #3C4C29",
"O  c #394727",
"+  c #2E542B",
"@  c #2C562A",
"#  c #32552C",
"$  c #3C542D",
"%  c #335C2E",
"&  c #3B5B2E",
"*  c #3C5C31",
"=  c #375F30",
"-  c #2C4F29",
";  c #34602F",
":  c #3D612F",
">  c #366331",
",  c #3A6432",
"<  c #376932",
"1  c #3A6C34",
"2  c #3D7336",
"3  c #4C4D2C",
"4  c #464728",
"5  c #584A2B",
"6  c #44532E",
"7  c #4B532E",
"8  c #46592F",
"9  c #56522E",
"0  c #435C32",
"q  c #4C5B33",
"w  c #4A5531",
"e  c #545B34",
"r  c #5A5C35",
"t  c #585734",
"y  c #67482C",
"u  c #744D2F",
"i  c #635D39",
"p  c #685A35",
"a  c #745434",
"s  c #7C5332",
"d  c #775C37",
"f  c #734F31",
"g  c #446433",
"h  c #4B6334",
"j  c #436C34",
"k  c #4C6C3A",
"l  c #4A6935",
"z  c #536436",
"x  c #5C633A",
"c  c #546B3B",
"v  c #5C6B3C",
"b  c #566737",
"n  c #447236",
"m  c #4A7434",
"M  c #4D7A37",
"N  c #457339",
"B  c #4A7939",
"V  c #54733A",
"C  c #557737",
"Z  c #40602F",
"A  c #64643B",
"S  c #6B643B",
"D  c #6B6B3D",
"F  c #656638",
"G  c #73643C",
"H  c #7C643C",
"J  c #76693D",
"K  c #68763C",
"L  c #596C43",
"P  c #5A7644",
"I  c #4E7A41",
"U  c #6B6C42",
"Y  c #696942",
"T  c #756C41",
"R  c #7C6B42",
"E  c #776642",
"W  c #6D7243",
"Q  c #687944",
"!  c #747444",
"~  c #7C7245",
"^  c #787948",
"/  c #6A7C52",
"(  c #825634",
")  c #865936",
"_  c #895B37",
"`  c #8B5D39",
"'  c #865C39",
"]  c #8E613B",
"[  c #84653D",
"{  c #92643D",
"}  c #96683F",
"|  c #996A3F",
" . c #846C43",
".. c #8C6B44",
"X. c #866743",
"o. c #936640",
"O. c #956B43",
"+. c #9A6D42",
"@. c #837345",
"#. c #8C7246",
"$. c #827549",
"%. c #897B4D",
"&. c #88774A",
"*. c #957246",
"=. c #9D7046",
"-. c #94734A",
";. c #9C734A",
":. c #94794C",
">. c #9C7B4D",
",. c #8C7D58",
"<. c #9C7C52",
"1. c #967A57",
"2. c #8A6E52",
"3. c #A17247",
"4. c #A3754A",
"5. c #A5794C",
"6. c #AB7C4E",
"7. c #A87C47",
"8. c #A47D52",
"9. c #AD7E51",
"0. c #A77E59",
"q. c #B07E51",
"w. c #927C65",
"e. c #588639",
"r. c #54883A",
"t. c #64973C",
"y. c #6E8A3A",
"u. c #75A93F",
"i. c #79834A",
"p. c #78865E",
"a. c #6E8B51",
"s. c #71A441",
"d. c #7D9166",
"f. c #5B8149",
"g. c #88933C",
"h. c #95923B",
"j. c #98A03F",
"k. c #DB9939",
"l. c #D5A73F",
"z. c #E3A63D",
"x. c #948153",
"c. c #998856",
"v. c #898650",
"b. c #B4854C",
"n. c #AE8052",
"m. c #A48A5A",
"M. c #AD8B5C",
"N. c #A68459",
"B. c #B38354",
"V. c #B68758",
"C. c #B68959",
"Z. c #BA8C5B",
"A. c #B68955",
"S. c #BD915F",
"D. c #B79558",
"F. c #B18E4D",
"G. c #94A544",
"H. c #B2A642",
"J. c #878B63",
"K. c #9A8968",
"L. c #879969",
"P. c #94976C",
"I. c #8C8374",
"U. c #998A78",
"Y. c #969C73",
"T. c #A68967",
"R. c #B48F60",
"E. c #A3936F",
"W. c #A89363",
"Q. c #B59463",
"!. c #BD9361",
"~. c #BB9967",
"^. c #A38C75",
"/. c #A69671",
"(. c #AC9978",
"). c #B99A77",
"_. c #9AA577",
"`. c #8FA562",
"'. c #B5A47D",
"]. c #A6B078",
"[. c #C9994E",
"{. c #CAB445",
"}. c #D9B649",
"|. c #D2A951",
" X c #E7B846",
".X c #E5B148",
"XX c #C19562",
"oX c #C59A66",
"OX c #C89C67",
"+X c #C59C69",
"@X c #C99E69",
"#X c #CDA26C",
"$X c #CBA569",
"%X c #D1A56E",
"&X c #D2A96D",
"*X c #DCB569",
"=X c #CEA671",
"-X c #CAA575",
";X c #D2A770",
":X c #D4AA72",
">X c #D9AE75",
",X c #DAB076",
"<X c #DCB279",
"1X c #D7B077",
"2X c #E0B67C",
"3X c #E19F41",
"4X c #EBC74B",
"5X c #EECD54",
"6X c #DFC155",
"7X c #9B9286",
"8X c #AF9B84",
"9X c #BBAA83",
"0X c #B8B78A",
"qX c #ACAF85",
"wX c #C3AE86",
"eX c #C4B28A",
"rX c #CAB88F",
"tX c #CCBC92",
"yX c #C4BE94",
"uX c #D1BE94",
"iX c #D6C49A",
"pX c #DCC99E",
"aX c #D8C59A",
"sX c #CAC995",
"dX c #D9CCA4",
"fX c #DDD5AB",
"gX c #E2CEA2",
"hX c #E5D1A5",
"jX c #E8D5AB",
"kX c #EBDAB4",
"lX c #E7D8B5",
"zX c #F1DFB7",
"xX c #F5E3BC",
"cX c #EEE1B9",
"vX c #E0CB9F",
"bX c #F4EBD8",
"nX c #F1E5C9",
"mX c #F9F5EC",
"MX c #FCF9F2",
"NX c #F7EFE1",
"BX c #E2DFC6",
/* pixels */
"                                                                                                                                                                ",
"    S.            ]             XX          +.+.          {             XX            !.          Z.XX          o.            XX            +.          { O.    ",
"    Z.Z.          O.          XXZ.          5.}           } +.          XX#X        Z.Z.          S.Z.          4.u           Z.          5.+.          O.O.    ",
"  Z.Z.V.        n.O.s         XXV.oX        6.}         +.+.+.        oXXX#X        Z.Z.Z.        Z.V.        6.5.f         XXZ.S.        6.} =.        +.}     ",
"  Z.Z.B.oX      B.O.(       oXoXV.@X      6.6.} 6.      } } +.3.      OX!.#X      9.Z.V.V.      V.Z.B.S.      n.4.s 9.      oXZ.!.      5.6.} 4.      { +.} =.  ",
"9.Z.Z.n.XX    n.V.O.' V.    #X@XV.OX<X    n.6.} 6.    ) ) { O.+.    OX@XS.@X,X    B.Z.V.B.#X    Z.Z.B.Z.    9.V.4.s 9.    @X#XZ.!.1X    9.6.+.4.Z.    ) ] } +.  ",
"B.Z.Z.n.Z.    V.B.{ ` B.    %X#XV.OX:X  9.B.4.} 6.Z.  _ ( ] } } =.  #X#X!.@X:X    Z.Z.V.B.XX  6.Z.Z.B.V.@X  B.V.+.( 9.    #X#XS.!.:X  6.B.5.} 4.Z.  ` ( ` } } +.",
"B.Z.Z.n.V.oXn.V.B.] ] B.Z.oX:X#XZ.OX#XXXB.V.+.} 6.V.4.` ( { } { +.XX;X:XXX@X#X#X6.V.Z.V.n.Z.XX6.Z.Z.B.B.XXC.V.V.+.) 6.Z.XX:X;X!.!.#X@Xn.V.3.} 4.V.n.] ) ` } { { ",
"B.Z.Z.n.B.@XB.V.B.{ ] B.V.oX:X:XZ.oX@XV.V.B.+.+.6.B.4.] ( { } ] +.OX:X:XXX@X#X#Xn.V.Z.V.9.Z.oX6.Z.Z.B.B.oXV.V.V.+.' 6.V.XX:X:XXX!.#XS.V.V.=.| 4.B.9.{ ) ] } { ] ",
"B.Z.Z.n.B.#XV.V.9.{ { B.V.OX%X:XZ.oX@XV.V.n.+.+.6.B.4.` ) { } ] +.oX:X;XoX@X#X#XB.V.S.Z.6.S.#X9.Z.S.B.9.@XZ.B.n.+.` 6.V.XX%X:XXX!.#X!.V.B.=.+.4.B.9.{ ) ] } { ] ",
"B.Z.S.B.B.:XV.B.6.} ] n.V.OX%X;XS.OX@XV.V.n.+.+.6.B.4.` ] } { ` +.OX:X:X@X@X@X=XB.V.S.Z.9.XX=X6.Z.!.V.9.#X!.B.6.+.` 6.B.XX%X%XXXXX#XS.V.B.=.+.4.B.9.` ] { } { ` ",
"9.Z.!.V.V.:XV.V.4.} ] n.V.oX:X:XXX@XOXV.V.B.3.+.6.B.4.` { } { ` O.OX:X>X#X@X@X=XB.B.S.Z.B.oX=X6.V.XXZ.n.#X!.B.6.+.` 6.B.XX;X:XOXoX#X!.V.V.4.+.4.B.9.` ] } { ] ` ",
"9.Z.!.V.V.:XV.V.6.O.] n.V.oX:X:XOX#XOXZ.V.V.4.+.6.B.4.` ] | ] ` +.oX:X:X#X@XOX;XB.B.S.Z.B.XX=X6.V.XXZ.n.#X!.V.9.+.` 6.B.XX:X:X#XOX@X!.V.V.6.+.4.B.9.` ] } { ] ` ",
"n.Z.!.B.B.:XV.V.n.+.{ n.V.oX:X:X@X#X@XZ.V.V.4.+.6.B.4.` ] +.] ` +.oX;X:X#X@XoX;XB.B.S.Z.9.XX:X6.V.!.V.9.=X!.V.B.4.` 6.B.XX:X>X#X@X@X!.V.V.5.+.5.B.9.` ] | { ` ] ",
"n.Z.XX9.B.:XV.V.B.=.O.B.V.oX:X:X@X#X@XS.V.V.3.=.6.B.4.` | +.] _ +.OX;X;X#X@XoX;XB.B.XXZ.5.oX:X6.Z.XXB.6.:X!.V.V.4.{ 9.B.XX;X:X#X@X@XXXV.V.4.=.5.B.9.` { +.{ ` { ",
"n.Z.XX6.V.1XV.V.V.3.+.B.V.oX:X:X@X@X@XS.V.V.3.3.6.B.4.` | +.` _ +.OX:X%X#XoXoX:XB.B.XXV.6.oX:X6.Z.XXB.9.:X!.B.V.4.} n.B.XX:X:X#X@X@XXXB.Z.4.3.6.B.9.` } +.{ _ { ",
"B.Z.XX9.Z.1XV.V.V.3.+.B.V.oX:X%X@XoXOXS.V.V.4.3.9.B.4.` } +.` ) +.OX%X#X#XOXoX:XB.B.XXV.9.OX:X6.Z.XXB.B.:X!.B.V.4.+.B.B.XX:X:X#XoXoXXXB.V.5.3.6.B.9.` } +.{ _ { ",
"B.Z.XXV.Z.1XV.V.V.3.+.B.V.oX:X;X#XoXoXS.V.V.4.3.9.B.4.` } | ] _ =.OX%X#X#XOXoX:XB.B.XXZ.V.OX:X6.V.XXZ.V.:X!.B.V.4.+.B.V.XX;X:X#XOXoXXXV.V.5.4.6.B.9.` } +.{ _ { ",
"n.Z.+X!.Z.1XV.V.V.N.3.V.V.OX%X;X-X#X#X!.B.V.8.N.n.B.4.` } 0.O._ =.OX:X#X-X#X#X:XB.B.XX~.V.oX:X6.V.+X+XV.:X!.B.V.N.;.B.V.XX%X%X-X#X#XoXB.V.8.N.6.B.9.` { =.+._ { ",
"9.Z.8XT.V.1XB.V.C.^.8.V.V.OX#XwX(.#X:X!.B.V.T.^.n.B.4._ o.U.1._ +.OX%X-X8X-X;X:XB.B.8X(.V.oX:X6.V.(.(.B.:XS.B.V.^.1.B.V.XX%X-X8X~.:XOXB.V.T.U.9.B.9.` { ^.1._ { ",
"9.C.7XK.V.1XB.V.M.I.<.B.V.OXOX9XU.+X:XS.n.V.w.I.n.B.4._ X.I.1.) +.OX#X).I.~.:X:XB.B.(.U.B.oX:X6.B.K.K.n.:XZ.B.V.U.1.B.V.XX@X-X7XQ.:XoXn.V.^.I.9.B.9.` ] 7Xw._ { ",
"9.V.T.N.V.1Xn.V.n.1.5.B.V.OXoX~.T.#X%XZ.9.V.-.1.9.V.4._ ` 2...) +.OX@X+XT.+X;X:XB.B.N.T.B.oX=X6.V.N.N.B.:XZ.9.V.1.<.B.V.XX@X+X(.+X%XXX9.V.<.1.6.B.9.` ` 1.2.) ] ",
"n.B.Z.Z.Z.1Xn.B.B.6.9.B.V.OXoX#X#X#X#XZ.9.V.3.6.q.V.4._ ` ] { ) +.OXoX#X%X#X#X:XB.B.V.Z.V.oX:X6.B.V.Z.V.:XZ.9.V.6.9.B.V.XXOX@X#X#X#XXX9.V.4.6.n.B.9.` ` ` { ) ` ",
"B.B.V.V.Z.1Xn.B.9.9.B.B.V.OXoX#X%X#X#XS.9.V.5.B.B.B.4.` ` ` ] ) +.OXoX#X%X#X#X:XB.B.V.Z.V.OX:X9.B.V.V.V.:XZ.9.V.6.V.B.V.XXOX#X;X#X#XoX9.V.6.B.B.B.9.` ` ` ] ) ` ",
"B.B.B.6.V.1Xn.B.9.6.V.B.V.OX@X%X:X#X#XS.9.V.9.V.B.B.4.` ] ` _ ) +.OXOX%X#X#X#X:XB.B.B.B.6.OX:X9.V.V.9.B.:XZ.6.B.4.V.B.V.XX@X%X:X%X#XoX9.V.n.B.B.n.9.` ] ` _ ) ` ",
"B.B.B.4.V.1Xn.B.6.4.V.B.V.OX%X:X:X#X#XS.9.V.9.B.n.B.4.` ] ` ` ) O.@X@X%X#X%X#X:XB.B.V.6.5.oX:X9.V.B.5.9.:XZ.6.B.3.V.B.B.XX%X%X:X%X#XOX9.V.n.B.B.n.9.` ] ` ` ) ` ",
"B.V.B.6.B.:Xn.B.9.4.B.B.V.OX%X:X%X:X:XS.9.V.9.B.9.B.4.` ] ` ) ) +.OX#X:X#X:X:X1XB.B.B.6.6.XX:X9.V.B.6.6.;XZ.6.B.3.B.B.V.XX%X;X%X:X:XOX9.V.B.n.9.B.9.` ] ` _ ) ` ",
"B.B.B.6.n.:Xn.B.n.4.B.B.V.OX#X:X:X<X,XS.9.V.B.9.6.B.4.` ` ` ( ) +.OX%X:X#X,X,X,XB.B.B.9.6.!.=X9.B.B.6.6.#XZ.9.V.3.q.B.V.XX#X%X%X,X,XOX9.V.B.9.6.B.9.` ` ` ) _ ] ",
"n.B.B.6.9.#X9.B.B.4.6.B.V.OX#X:X:X<X,X!.9.V.B.6.9.V.4._ _ ` ) _ +.@X%X:X:X<X,X<XB.B.B.9.6.Z.#X6.B.B.6.6.oXV.9.V.3.6.B.V.XX#X%X:X<X,X#X9.V.V.6.6.B.9.` ` ` ) _ ] ",
"n.B.B.6.9.oX9.B.B.4.6.B.Z.@X#X;X:X:X:XXX9.V.V.6.6.V.4._ ` ` _ ( +.@X%X:X,X<X#X1XB.B.B.B.9.V.oX6.B.B.6.9.!.B.9.V.3.6.B.V.XX%X%X:X:X%X#X9.V.V.6.6.B.9.` ` ` _ ) ] ",
"B.B.B.6.6.XX6.B.B.4.6.B.Z.@X%X:X>X#X#XXX9.V.B.6.6.V.4.` ` ` ` ( +.@X;X:X,X>XoX,XB.B.B.B.6.V.XX9.B.B.9.6.S.B.9.V.4.6.B.Z.XX%X%X>X:XOX#X9.V.B.6.4.B.9.] ` ` ` ) ` ",
"B.B.9.6.6.XX6.B.B.4.6.B.Z.@X%X:X<X#XOXXX9.V.9.6.4.B.4.` ` ` ` ) O.@X%X:X>X:XXX:XB.V.B.9.6.V.XX9.V.n.6.6.!.n.9.V.4.6.B.Z.XX%X%X,X,X6X&X9.V.n.6.4.9.9.{ ` ] ` _ ` ",
"B.V.6.6.6.XX6.B.B.4.6.B.V.@X#X%X<XOXXXXX6.V.6.6.4.B.4.` ` ] _ ) O.@X#X:X>X:X!.:XB.B.B.6.6.V.!.6.V.9.6.6.S.n.9.V.4.6.B.V.XX#X#X1X*X X}.n.B.6.5.4.6.n.` ` ] ` _ ` ",
"B.B.6.9.6.S.5.B.B.4.3.n.V.OXOX%X,XoX!.XX6.B.4.6.4.9.4.( ` ] ) _ o.@X#X;X:X:XZ.:XB.B.B.6.9.B.Z.6.V.9.6.6.Z.9.9.V.4.3.6.V.XX#X#X>X&X3X.X[.|.6.6.4.6.n.) _ { _ _ _ ",
"B.B.6.6.6.Z.5.n.B.4.+.6.V.@X@X%X>XoX!.XX6.B.6.9.4.9.4.s ` { ) _ O.@X@X%X:X:XZ.:XB.B.B.6.6.B.Z.9.B.9.6.6.V.9.6.V.6.+.4.B.oX#X#X>X*X}..Xz.5XF.9.4.6.9.s ) { _ _ ` ",
"B.B.6.6.*.V.6.6.B.4.{ 4.V.#X#X;X>X@X!.XX9.V.B.9.4.9.4.s ` { ) _ O.@X#X%X:X:XZ.>XB.B.9.6.3.9.Z.9.B.9.6.3.V.9.6.B.6.} =.B.oX#X%X:X*X X Xk.z.[.B.5.6.9.s ) { _ ) ` ",
"B.n.#.*.J N.6.9.B.4.] 4.V.#X%X:X:X@XOXXXn.V.B.9.4.n.3.s ` { ) _ O.@X%X;X:X:XXX1XV.B.B.9.+.6.Z.9.B.9.6.+.V.9.6.B.6.{ +.B.oX%X;X:X*X.X4X Xk.k.[.5.6.9.( ) { _ ) ` ",
"B.9.b z G %.5.9.B.4.` 4.V.#X:X:X:X%X%X!.B.B.9.9.4.n.4.s ` { ) ) O.@X>X:X:X:X#X1XV.B.B.9.=.6.Z.9.B.9.6.=.V.n.6.B.6.] =.B.oX:X;X:X%X*X5X X4X4X Xb.6.9.( ) { _ ) ` ",
"B.B.@.g D W ~ 9.B.6.` 5.V.#X>X:X>X:X:XS.B.B.9.9.6.n.4.s ` { ) ) o.@X>X:X:X>X:X>XV.n.n.9.3.9.Z.9.B.9.6.3.V.n.6.B.6.] =.B.XX:X#X:X>X:X*X5X5X X4XD.6.9.( ) { _ ) ` ",
"B.B.6.>.F D D 9.B.6.` 5.V.#X:X:X>X>X:X!.B.B.6.6.6.B.4.( ) { ) ) o.#X<X:X:X>X:X>XV.B.B.9.3.9.Z.9.B.9.6.4.V.n.6.B.6.{ =.V.S.%XOX#X>X:X&X|.5X X3XD.9.9.) ( { ) ( ` ",
"B.B.6.~ g ! ! 9.B.6.{ 5.V.#X:X:X>X>X>XXXB.B.6.6.6.B.4.( ) { ( ) o.#X,X:X:X:X:X:XV.9.B.9.3.9.Z.9.B.9.6.3.V.n.6.B.6.} 4.V.XX#X!.Q.:X>X#XA.|.[.b.6.9.9.) ( ] ) ( _ ",
"B.B.6.#.J x.W $.B.6.+.6.V.#X>X;X:X:X>XXXB.B.6.6.6.B.4.( s ` ) ) { #X<X:X;X%X:X:XB.B.B.9.3.n.V.6.B.9.9.3.V.n.9.B.6.+.F.[.XXM.C.m.#X#X+Xn.A.B.6.6.9.9.` s ` _ ( ) ",
"9.B.9.5.S c x ~ B.4.4.6.V.#X:X%X:X%X:XXXn.B.6.6.9.n.5.) s ` ) ) o.#X<X>X:X%X:X:X9.B.B.9.4.6.V.6.B.n.9.3.B.9.9.B.5.7.}.}.$XN.N.%.+X~.+X9.B.n.6.9.9.9.` u _ ) ) _ ",
"6.V.6.6.=.D v 8.9.5.9.9.V.#X>X%X:X#X:XXX6.B.9.6.B.B.5.` s _ ) ) o.#X<X>X:X#X:X1X6.B.B.6.4.n.Z.4.V.6.6.4.V.9.9.B.4.D.5X4X$XN.E ! Q.+X~.9.B.n.6.n.B.B.{ s ) ) ) ` ",
"9.V.6.5.6.<.T 6.6.4.B.B.Z.#X>X;X:X#X#X!.6.B.n.5.5.B.4.] ) _ ) ) O.#X<X:X:X:X@X1X6.B.B.5.4.B.Z.5.V.6.5.4.Z.9.9.B.=.[.5X{.D.N.r Y c.M.M.9.B.B.6.B.B.:.H p ) _ ) ` ",
"9.V.9.5.6.9.#.9.5.5.6.B.S.#X,X:X:X:X#XXX9.B.B.4.;.Z.=._ ` ` ` ) o.#X,X:X:X>X@X1X6.V.B.6.4.B.Z.5.Z.n.5.5.Z.n.B.9.=.b.{.l.m.M.t x v.m.Q.n.B.B.6.q.5.x r d ` ` ) ` ",
"n.V.n.;.6.5.;.8.;.6.6.B.XX#X<X:X:X>X;XXX9.B.B.=.O.C.O.s ` ] ] _ { #X>X:X:X<X#X1X9.V.V.9.4.B.Z.6.V.B.6.4.Z.n.5.5.;.4.F.h.c.C.r 0 ^ M.OXn.B.B.6.5.&.z e r r d _ ) ",
"n.V.>.#.6.-.*.>.O.9.6.B.XX%X<X:X:X>X>XoX9.B.9.=...M.O.s ` ` { _ { #X>X:X:X<X;X1X9.B.V.n.4.V.Z.6.V.B.6.4.Z.n.4.4.O.=.:.x c.Z.i # x Q.~.5.B.B.6.@.^ W S e * S ` ) ",
"n.Z.-. .6.@...5...6.6.B.oX%X<X:X:X1X<XoXn.B.:.*...m.O.s _ _ { ) o.#X>X:X:X,X>X<X6.V.B.9.4.B.Z.6.V.B.6.4.Z.n.5.;.[ *.5.$.m.R.i + e Q.m.8.V.B.6.T ! ! A p i [ ` ) ",
"n.Z.#. .q. ...n...6.6.n.OX%X2X:X:X2X<XoXB.B.#...] :.X.s ) ) { ) { #X:X:X:X1X<X<X6.V.B.6.6.B.Z.6.Z.9.6.6.Z.n.9.#.p #.;.XXm.C.x + x Q.%.B.n.B.9.R v W e p _ { _ ) ",
"n.V. .@.B. ...8.X.6.6.9.OX;X2X:X:X2X<XXXB.B.~ X.] $.[ s _ _ ) _ { XX#X:X:X<X<X<X6.V.B.6.B.V.Z.5.Z.9.n.9.Z.n.B.#.9 ~ ..~.N.M.x + Y Q.~ n.-.B.9.J Q ^ d d ` ] _ ) ",
"9.V. .@.B. .R 5...4.5.9.=X:X2X:X1X<X,X!.B.B.T H ' $.H s ) ( s ` o.Q.~.%X>X<X,X1X6.V.9.6.B.B.V.5.V.6.B.B.V.n.B.-.7 D -.m. .:.x + W c.%.:.-.V.>.=.XX!.{ ) _ ` ` ) ",
"n.V.[ ~ ;.X.T ;.....=.8.:X%X>X%X,X<X,XoXB.B.T p d $.H f ) a s ` { m.M.#X1X<X:X1X9.V.6.6.B.B.V.5.B.4.B.B.V.9.9.5.e 0 :.@.p Y x + ! $.x.@.5.n.:.3.OXXX` s ( ( ` _ ",
"B.V.@.!  .d G O.X...4.>.:X!.!.%X,X<X>XoXB.B.R 9 d $.G u a 5 u ` s x.<.!.=X<X>X<X9.V.9.9.n.B.V.4.5.4.B.B.V.n.4.9.r % x.<.t q z + ! A x.T ;.>.9.4.@XXX` u s s _ _ ",
"B.<.J D J p S O.G @.B.-.~.-.R.:X,X1X>XoXV.>.T i d $.d u a 5 u s y v.%.!.#X1X>X<Xn.V.n.5.4.V.n.=.O.=.B.n.Z.n.4.;.i % %.m.e & g + U e T T -.>.V.9.@XXX` y u a d ) ",
"V.n.F K  .d A O.J %.9.i c...~.#X:X<X:XXXV.:.Y i p ~ p u p y ( 9 t i.! x.~.1X>X<Xn.V.9.=...V.<.-.X.[ 5.6.Z.;.*. .H % W &.9 % 1 + e q U A R 8.<.n.OXXX) y u A d ) ",
"5.5.r K @.G r ] G %.>.8 %.<.!.@X:X1X#XC.5.5.x e 9 T p u 9 y p 4 r Q U x.M.1X>X:X9.V.6.O.H V.<... .D 5.5.V...[ @.&.* h S t % < % 8 6 0 9  .&.N.9.XXXXa . u F G d ",
"9.[ 7 z $.G 7 d A ~ $.6 i M.Q.!.:X,X#X8.O.9.q 6 3 A t y 9 y 9 3 r V T x.c.1X#X=X9.B.3. .R V.%. .F D >.5.n. .S @.T 0 * x e % < % $ # # 6  .$.C.6.S.C.y . a v D d ",
">.[ 3 0 ^ S 3 d r x v A 9 C.R.!.R.c.m.M.d #.q o 3 t 9 y 3 5 o 5 e l U $.:.,XQ.Q.5.9.=. . .6.@.R b ! :.5.>.H K $.x q > h 0 > < % # # % q T %.N.;.C.<.5 y S n S ) ",
">.#.t & C x 3 a e 8 * R t c.x.!.N.$.i.m.A D 7 X 6 7 3 5 3 4 o y 7 < D S &.$Xc.Q.>...;.R  .O.G S l K *.;.:.G K ! r q > , > j 1 % + + % r A %.>.=.8.~ 3 y F n H _ ",
"n.T p % j z 7 y e $ $ G r $.! c.M.<.Q U k r t % $ w 4 . 3 4 o 5 8 < c r @.Q.^ ~.&.A -.S  . .r t n K =. .#.F i.D q 0 > < > j 1 % + % # e x ~ 5...R T 7 p c V ` ) ",
">.F 5 > m h 3 5 h 0 o t e ..^ Q Q.x.P $ j q h % # & O 4 3 o 6 4 % < k t R c.b m.D z #.t R D e 8 2 ! +.G R v v.F 0 & % > = j 2 % + % # $ b T -.5 i W./ i n D [ ( ",
"W c 3 * M 0 6 9 g 0 o o 8  .:.V c.! c q 1 j g % # % O 4 4 o 6 $ % < k t Y Q 0 E q x  .7 J b g , 2 v [ F G V v.i * % % < * j 2 % + % # + k X.p Y T.vX0XP n [ H ) ",
"k l 0 % M & 6 r > # o 6 6 R :.g ! 0 v D 2 2 e * + ; O o 6 o $ o & 1 N e x U * q h e G 6 i h , 1 N V S e i V K S * % % < * j 2 % + > % % z G J.tXlXlXhXY.V J H _ ",
"< l g % m & l e > # - 6 6 R %.c j , Q ^ 2 j F c & % O O # X 6 4 0 2 j e 0 v e & D r i $ r j < 1 v j 5 h q K V x * > % > * 1 2 % % > # % e J.lXbXmXbXhX0XW D [ ' ",
"< l g j j : j q < % + 6 6 T ^ ! k a.Q a.2 K H.H.y.: O O X X & 4 g 2 j e % b r k t 7 t & e 1 1 2 l j 6 e.e e.e.g g > > % & , 2 ; ; > % < z 0XmXMXnXhXhXgX^ J J G ",
"< M m g g j M g 1 % + 6 0 i x S V J.N N B G.4X4X{.C O O + + % $ 0 2 j q % g q , % # 6 # 6 1 2 1 1 1 , e.z e.C 0 > < < % # , 1 > < > % < I fXmXkXhXhXhXhXP.F S _ ",
"2 j C : M M m m 2 % % j , k b A n a.N 1 y.{..X X}.g.# X + + + ; & 2 1 * & 0 % < @ + % # # 1 2 < < 1 r M M e.e.z % < < % # > < > 1 > % < P nXbXhXhXhXhXhX].l d _ ",
"2 1 M M e.e.m m 1 % > l & g N b 1 1 2 2 y.z. X5Xl.g.& # % % + > & 2 > % & * % , % # # # % 2 2 < , < q C e.t.n h > < > ; + ; < > 2 % % 1 L.NXbXdXgXhXhXhX0Xb a _ ",
"1 1 1 e.e.t.r.n 2 1 2 n & 6 j , < < 2 n G.4Xz.3Xz.j.: % ; % % < > 2 > % # % % , # # % # % 2 2 < ; < 0 m t.s.1 j % > % > + % < > 1 % % 1 0XMXnXaXtXhXhXhX0Xb d ' ",
"; < < r.t.s.e.< 2 2 2 B n 0 g < 1 < 2 n g.}..X.XH.y.% % > < % % % 1 > % + % % > + % > % > 2 2 1 % % # m t.t., 2 < % > < + % > > 1 + % f.BXMXlXdX9XtXhXhXtXc b d ",
"J.qX0X].G.u.e.> < 1 2 r.r.m : 2 2 1 2 n C g.{.}.j.l % % < 1 < > % < % % # % > % + % < % < 2 1 1 % + % M t.e.; 1 < % > > + % % > > # % _.mXbXhXhX(.(.iXjXtXL r a ",
"iXzXnXcXsX`.P d._.a.1 M r.M % 2 2 n 2 1 < g y.g.V % < < < 1 1 < > > % % % > > % + % < = < < 2 < % # < n t.r.@ < > % ; % + % % @ @ - P fXMXkXhXhXrXK.'.eX'.v w t ",
"hXjXkXcXxXsX/ qXdX0XL.M e.j % 2 2 N 2 1 , % ; : + # < 2 < 2 2 < < % % % % > < % % # , < < 1 < < % % > a.].L.0 % , % + + - + k / p.J.0XNXbXhXhXpXpXE.E./.E.L g q ",
"hXhXhXhXkXcXY.J.qXdXjX`.e.% > 1 2 N 2 2 1 > < + # # , 2 1 2 2 1 < + % % > % 1 > % # < 1 < 2 < > % * d.yXzXdXP.k 1 % + + L p.Y.0XpXjXbXNXlXhXaX9X9XK.K././.P._._.",
"hXpXpXhXhXzXfXp.J.iXzXfXa.+ % < 1 2 2 2 2 , < + # # , 2 2 2 2 2 2 % + % 1 ; 1 < > % 1 2 < 2 < + % p.lXxXkXjXhXP.j % # / qXjXtX'.aXkXbXkXhXhXeXE.K.J.K.K.(.gXxXxX",
"aXuXiXhXhXjXkXp.P.hXhXkX_., % ; 1 2 2 2 2 2 1 % % % 1 2 2 2 2 2 2 > # % 2 < 1 < < > 1 2 1 2 < + L dXkXhXhXhXhXeXL > / iXhXgX'.E.wXhXhXhXhXaX(././.E.K.,.'.hXhXhX",
"9XgXhXhXhXhXhXqXyXhXpXiXjXP.* % 2 2 2 2 2 2 1 < < > 2 2 2 2 2 2 2 < > > 2 1 2 2 1 1 2 2 2 2 I P Y.jXhXhXhXhXhXeX,./ iXhXhXiX(./.(.aXhXhXhXeX/./././.E.K.9XhXhXhX",
"9XgXhXhXhXhXhXpXgXdX9XaXhXkXJ.< 2 2 2 2 2 2 1 < 2 2 2 2 2 2 2 2 2 < 2 1 2 2 2 2 2 2 2 2 2 B _.rX(.9XgXhXhXhXpX'.K.eXhXhXiX(.E././.9XgXhXiX(././././.K.,.'.pXhXhX",
"/.rXhXhXhXhXgXwXtXeXE.pXhXjX0XB 2 2 2 2 2 2 2 2 2 2 2 2 2 2 2 2 2 2 2 2 2 2 2 2 2 2 2 2 2 d.'././.,.uXhXhXhXtX/.'.gXhXdX'./.,./././.eXiX'./././././.K.,./.rXhXhX"
};
